<svg xmlns="http://www.w3.org/2000/svg" viewBox="0 0 320 200" width="320" height="200">
<rect width="320" height="200" fill="#faf0e4"/>
<rect x="0" y="0" width="320" height="5" fill="#ede0d0"/>
<rect x="0" y="5" width="20" height="5" fill="#ede0d0"/>
<rect x="20" y="5" width="280" height="5" fill="#d4c4b0"/>
<rect x="300" y="5" width="20" height="5" fill="#ede0d0"/>
<rect x="0" y="10" width="140" height="5" fill="#ede0d0"/>
<rect x="140" y="10" width="45" height="5" fill="#2a1a1e"/>
<rect x="185" y="10" width="135" height="5" fill="#ede0d0"/>
<rect x="0" y="15" width="15" height="5" fill="#ede0d0"/>
<rect x="15" y="15" width="10" height="5" fill="#d4c4b0"/>
<rect x="25" y="15" width="100" height="5" fill="#ede0d0"/>
<rect x="125" y="15" width="75" height="5" fill="#2a1a1e"/>
<rect x="200" y="15" width="95" height="5" fill="#ede0d0"/>
<rect x="295" y="15" width="10" height="5" fill="#d4c4b0"/>
<rect x="305" y="15" width="15" height="5" fill="#ede0d0"/>
<rect x="0" y="20" width="5" height="5" fill="#ede0d0"/>
<rect x="5" y="20" width="5" height="5" fill="#d4c4b0"/>
<rect x="10" y="20" width="5" height="5" fill="#ede0d0"/>
<rect x="15" y="20" width="5" height="5" fill="#d4c4b0"/>
<rect x="20" y="20" width="95" height="5" fill="#ede0d0"/>
<rect x="115" y="20" width="35" height="5" fill="#2a1a1e"/>
<rect x="150" y="20" width="25" height="5" fill="#4a3535"/>
<rect x="175" y="20" width="35" height="5" fill="#2a1a1e"/>
<rect x="210" y="20" width="90" height="5" fill="#ede0d0"/>
<rect x="300" y="20" width="5" height="5" fill="#d4c4b0"/>
<rect x="305" y="20" width="5" height="5" fill="#ede0d0"/>
<rect x="310" y="20" width="5" height="5" fill="#d4c4b0"/>
<rect x="315" y="20" width="5" height="5" fill="#ede0d0"/>
<rect x="0" y="25" width="5" height="5" fill="#ede0d0"/>
<rect x="5" y="25" width="5" height="5" fill="#d4c4b0"/>
<rect x="10" y="25" width="100" height="5" fill="#ede0d0"/>
<rect x="110" y="25" width="20" height="5" fill="#2a1a1e"/>
<rect x="130" y="25" width="65" height="5" fill="#4a3535"/>
<rect x="195" y="25" width="20" height="5" fill="#2a1a1e"/>
<rect x="215" y="25" width="95" height="5" fill="#ede0d0"/>
<rect x="310" y="25" width="5" height="5" fill="#d4c4b0"/>
<rect x="315" y="25" width="5" height="5" fill="#ede0d0"/>
<rect x="0" y="30" width="5" height="5" fill="#ede0d0"/>
<rect x="5" y="30" width="5" height="5" fill="#d4c4b0"/>
<rect x="10" y="30" width="10" height="5" fill="#ede0d0"/>
<rect x="20" y="30" width="5" height="5" fill="#c4b4a0"/>
<rect x="25" y="30" width="5" height="5" fill="#d4c4b0"/>
<rect x="30" y="30" width="70" height="5" fill="#ede0d0"/>
<rect x="100" y="30" width="20" height="5" fill="#2a1a1e"/>
<rect x="120" y="30" width="20" height="5" fill="#4a3535"/>
<rect x="140" y="30" width="45" height="5" fill="#2a1a1e"/>
<rect x="185" y="30" width="20" height="5" fill="#4a3535"/>
<rect x="205" y="30" width="20" height="5" fill="#2a1a1e"/>
<rect x="225" y="30" width="65" height="5" fill="#ede0d0"/>
<rect x="290" y="30" width="5" height="5" fill="#d4c4b0"/>
<rect x="295" y="30" width="5" height="5" fill="#c4b4a0"/>
<rect x="300" y="30" width="10" height="5" fill="#ede0d0"/>
<rect x="310" y="30" width="5" height="5" fill="#d4c4b0"/>
<rect x="315" y="30" width="5" height="5" fill="#ede0d0"/>
<rect x="0" y="35" width="5" height="5" fill="#ede0d0"/>
<rect x="5" y="35" width="5" height="5" fill="#d4c4b0"/>
<rect x="10" y="35" width="10" height="5" fill="#ede0d0"/>
<rect x="20" y="35" width="5" height="5" fill="#c4b4a0"/>
<rect x="25" y="35" width="5" height="5" fill="#d4c4b0"/>
<rect x="30" y="35" width="65" height="5" fill="#ede0d0"/>
<rect x="95" y="35" width="20" height="5" fill="#2a1a1e"/>
<rect x="115" y="35" width="15" height="5" fill="#4a3535"/>
<rect x="130" y="35" width="15" height="5" fill="#2a1a1e"/>
<rect x="145" y="35" width="35" height="5" fill="#1e0e12"/>
<rect x="180" y="35" width="15" height="5" fill="#2a1a1e"/>
<rect x="195" y="35" width="15" height="5" fill="#4a3535"/>
<rect x="210" y="35" width="20" height="5" fill="#2a1a1e"/>
<rect x="230" y="35" width="60" height="5" fill="#ede0d0"/>
<rect x="290" y="35" width="5" height="5" fill="#d4c4b0"/>
<rect x="295" y="35" width="5" height="5" fill="#c4b4a0"/>
<rect x="300" y="35" width="10" height="5" fill="#ede0d0"/>
<rect x="310" y="35" width="5" height="5" fill="#d4c4b0"/>
<rect x="315" y="35" width="5" height="5" fill="#ede0d0"/>
<rect x="0" y="40" width="5" height="5" fill="#ede0d0"/>
<rect x="5" y="40" width="5" height="5" fill="#d4c4b0"/>
<rect x="10" y="40" width="10" height="5" fill="#ede0d0"/>
<rect x="20" y="40" width="5" height="5" fill="#c4b4a0"/>
<rect x="25" y="40" width="5" height="5" fill="#d4c4b0"/>
<rect x="30" y="40" width="60" height="5" fill="#ede0d0"/>
<rect x="90" y="40" width="20" height="5" fill="#2a1a1e"/>
<rect x="110" y="40" width="10" height="5" fill="#4a3535"/>
<rect x="120" y="40" width="10" height="5" fill="#2a1a1e"/>
<rect x="130" y="40" width="65" height="5" fill="#1e0e12"/>
<rect x="195" y="40" width="10" height="5" fill="#2a1a1e"/>
<rect x="205" y="40" width="10" height="5" fill="#4a3535"/>
<rect x="215" y="40" width="20" height="5" fill="#2a1a1e"/>
<rect x="235" y="40" width="55" height="5" fill="#ede0d0"/>
<rect x="290" y="40" width="5" height="5" fill="#d4c4b0"/>
<rect x="295" y="40" width="5" height="5" fill="#c4b4a0"/>
<rect x="300" y="40" width="10" height="5" fill="#ede0d0"/>
<rect x="310" y="40" width="5" height="5" fill="#d4c4b0"/>
<rect x="315" y="40" width="5" height="5" fill="#ede0d0"/>
<rect x="0" y="45" width="5" height="5" fill="#ede0d0"/>
<rect x="5" y="45" width="5" height="5" fill="#d4c4b0"/>
<rect x="10" y="45" width="10" height="5" fill="#ede0d0"/>
<rect x="20" y="45" width="5" height="5" fill="#c4b4a0"/>
<rect x="25" y="45" width="5" height="5" fill="#d4c4b0"/>
<rect x="30" y="45" width="60" height="5" fill="#ede0d0"/>
<rect x="90" y="45" width="15" height="5" fill="#2a1a1e"/>
<rect x="105" y="45" width="10" height="5" fill="#4a3535"/>
<rect x="115" y="45" width="10" height="5" fill="#2a1a1e"/>
<rect x="125" y="45" width="15" height="5" fill="#1e0e12"/>
<rect x="140" y="45" width="45" height="5" fill="#180a0e"/>
<rect x="185" y="45" width="15" height="5" fill="#1e0e12"/>
<rect x="200" y="45" width="10" height="5" fill="#2a1a1e"/>
<rect x="210" y="45" width="10" height="5" fill="#4a3535"/>
<rect x="220" y="45" width="15" height="5" fill="#2a1a1e"/>
<rect x="235" y="45" width="55" height="5" fill="#ede0d0"/>
<rect x="290" y="45" width="5" height="5" fill="#d4c4b0"/>
<rect x="295" y="45" width="5" height="5" fill="#c4b4a0"/>
<rect x="300" y="45" width="10" height="5" fill="#ede0d0"/>
<rect x="310" y="45" width="5" height="5" fill="#d4c4b0"/>
<rect x="315" y="45" width="5" height="5" fill="#ede0d0"/>
<rect x="0" y="50" width="5" height="5" fill="#ede0d0"/>
<rect x="5" y="50" width="5" height="5" fill="#d4c4b0"/>
<rect x="10" y="50" width="10" height="5" fill="#ede0d0"/>
<rect x="20" y="50" width="5" height="5" fill="#c4b4a0"/>
<rect x="25" y="50" width="5" height="5" fill="#d4c4b0"/>
<rect x="30" y="50" width="55" height="5" fill="#ede0d0"/>
<rect x="85" y="50" width="15" height="5" fill="#2a1a1e"/>
<rect x="100" y="50" width="10" height="5" fill="#4a3535"/>
<rect x="110" y="50" width="5" height="5" fill="#2a1a1e"/>
<rect x="115" y="50" width="15" height="5" fill="#1e0e12"/>
<rect x="130" y="50" width="65" height="5" fill="#180a0e"/>
<rect x="195" y="50" width="15" height="5" fill="#1e0e12"/>
<rect x="210" y="50" width="5" height="5" fill="#2a1a1e"/>
<rect x="215" y="50" width="10" height="5" fill="#4a3535"/>
<rect x="225" y="50" width="15" height="5" fill="#2a1a1e"/>
<rect x="240" y="50" width="50" height="5" fill="#ede0d0"/>
<rect x="290" y="50" width="5" height="5" fill="#d4c4b0"/>
<rect x="295" y="50" width="5" height="5" fill="#c4b4a0"/>
<rect x="300" y="50" width="10" height="5" fill="#ede0d0"/>
<rect x="310" y="50" width="5" height="5" fill="#d4c4b0"/>
<rect x="315" y="50" width="5" height="5" fill="#ede0d0"/>
<rect x="0" y="55" width="5" height="5" fill="#ede0d0"/>
<rect x="5" y="55" width="5" height="5" fill="#d4c4b0"/>
<rect x="10" y="55" width="10" height="5" fill="#ede0d0"/>
<rect x="20" y="55" width="5" height="5" fill="#c4b4a0"/>
<rect x="25" y="55" width="5" height="5" fill="#d4c4b0"/>
<rect x="30" y="55" width="50" height="5" fill="#ede0d0"/>
<rect x="80" y="55" width="15" height="5" fill="#2a1a1e"/>
<rect x="95" y="55" width="10" height="5" fill="#4a3535"/>
<rect x="105" y="55" width="5" height="5" fill="#2a1a1e"/>
<rect x="110" y="55" width="15" height="5" fill="#1e0e12"/>
<rect x="125" y="55" width="20" height="5" fill="#180a0e"/>
<rect x="145" y="55" width="35" height="5" fill="#0e0508"/>
<rect x="180" y="55" width="20" height="5" fill="#180a0e"/>
<rect x="200" y="55" width="15" height="5" fill="#1e0e12"/>
<rect x="215" y="55" width="5" height="5" fill="#2a1a1e"/>
<rect x="220" y="55" width="10" height="5" fill="#4a3535"/>
<rect x="230" y="55" width="15" height="5" fill="#2a1a1e"/>
<rect x="245" y="55" width="45" height="5" fill="#ede0d0"/>
<rect x="290" y="55" width="5" height="5" fill="#d4c4b0"/>
<rect x="295" y="55" width="5" height="5" fill="#c4b4a0"/>
<rect x="300" y="55" width="10" height="5" fill="#ede0d0"/>
<rect x="310" y="55" width="5" height="5" fill="#d4c4b0"/>
<rect x="315" y="55" width="5" height="5" fill="#ede0d0"/>
<rect x="0" y="60" width="5" height="5" fill="#ede0d0"/>
<rect x="5" y="60" width="5" height="5" fill="#d4c4b0"/>
<rect x="10" y="60" width="10" height="5" fill="#ede0d0"/>
<rect x="20" y="60" width="5" height="5" fill="#c4b4a0"/>
<rect x="25" y="60" width="5" height="5" fill="#d4c4b0"/>
<rect x="30" y="60" width="50" height="5" fill="#ede0d0"/>
<rect x="80" y="60" width="10" height="5" fill="#2a1a1e"/>
<rect x="90" y="60" width="10" height="5" fill="#4a3535"/>
<rect x="100" y="60" width="10" height="5" fill="#2a1a1e"/>
<rect x="110" y="60" width="10" height="5" fill="#1e0e12"/>
<rect x="120" y="60" width="15" height="5" fill="#180a0e"/>
<rect x="135" y="60" width="55" height="5" fill="#0e0508"/>
<rect x="190" y="60" width="5" height="5" fill="#382028"/>
<rect x="195" y="60" width="10" height="5" fill="#2a1820"/>
<rect x="205" y="60" width="10" height="5" fill="#1e0e12"/>
<rect x="215" y="60" width="10" height="5" fill="#2a1a1e"/>
<rect x="225" y="60" width="10" height="5" fill="#4a3535"/>
<rect x="235" y="60" width="10" height="5" fill="#2a1a1e"/>
<rect x="245" y="60" width="45" height="5" fill="#ede0d0"/>
<rect x="290" y="60" width="5" height="5" fill="#d4c4b0"/>
<rect x="295" y="60" width="5" height="5" fill="#c4b4a0"/>
<rect x="300" y="60" width="10" height="5" fill="#ede0d0"/>
<rect x="310" y="60" width="5" height="5" fill="#d4c4b0"/>
<rect x="315" y="60" width="5" height="5" fill="#ede0d0"/>
<rect x="0" y="65" width="5" height="5" fill="#ede0d0"/>
<rect x="5" y="65" width="5" height="5" fill="#d4c4b0"/>
<rect x="10" y="65" width="10" height="5" fill="#ede0d0"/>
<rect x="20" y="65" width="5" height="5" fill="#c4b4a0"/>
<rect x="25" y="65" width="5" height="5" fill="#d4c4b0"/>
<rect x="30" y="65" width="45" height="5" fill="#ede0d0"/>
<rect x="75" y="65" width="15" height="5" fill="#2a1a1e"/>
<rect x="90" y="65" width="10" height="5" fill="#4a3535"/>
<rect x="100" y="65" width="5" height="5" fill="#2a1a1e"/>
<rect x="105" y="65" width="10" height="5" fill="#1e0e12"/>
<rect x="115" y="65" width="15" height="5" fill="#180a0e"/>
<rect x="130" y="65" width="20" height="5" fill="#0e0508"/>
<rect x="150" y="65" width="15" height="5" fill="#3a0f08"/>
<rect x="165" y="65" width="5" height="5" fill="#0e0508"/>
<rect x="170" y="65" width="5" height="5" fill="#3a0f08"/>
<rect x="175" y="65" width="20" height="5" fill="#0e0508"/>
<rect x="195" y="65" width="10" height="5" fill="#382028"/>
<rect x="205" y="65" width="5" height="5" fill="#2a1820"/>
<rect x="210" y="65" width="10" height="5" fill="#1e0e12"/>
<rect x="220" y="65" width="5" height="5" fill="#2a1a1e"/>
<rect x="225" y="65" width="10" height="5" fill="#4a3535"/>
<rect x="235" y="65" width="15" height="5" fill="#2a1a1e"/>
<rect x="250" y="65" width="40" height="5" fill="#ede0d0"/>
<rect x="290" y="65" width="5" height="5" fill="#d4c4b0"/>
<rect x="295" y="65" width="5" height="5" fill="#c4b4a0"/>
<rect x="300" y="65" width="10" height="5" fill="#ede0d0"/>
<rect x="310" y="65" width="5" height="5" fill="#d4c4b0"/>
<rect x="315" y="65" width="5" height="5" fill="#ede0d0"/>
<rect x="0" y="70" width="5" height="5" fill="#ede0d0"/>
<rect x="5" y="70" width="5" height="5" fill="#d4c4b0"/>
<rect x="10" y="70" width="10" height="5" fill="#ede0d0"/>
<rect x="20" y="70" width="5" height="5" fill="#c4b4a0"/>
<rect x="25" y="70" width="5" height="5" fill="#d4c4b0"/>
<rect x="30" y="70" width="45" height="5" fill="#ede0d0"/>
<rect x="75" y="70" width="10" height="5" fill="#2a1a1e"/>
<rect x="85" y="70" width="10" height="5" fill="#4a3535"/>
<rect x="95" y="70" width="5" height="5" fill="#2a1a1e"/>
<rect x="100" y="70" width="10" height="5" fill="#1e0e12"/>
<rect x="110" y="70" width="15" height="5" fill="#180a0e"/>
<rect x="125" y="70" width="10" height="5" fill="#382028"/>
<rect x="135" y="70" width="10" height="5" fill="#0e0508"/>
<rect x="145" y="70" width="35" height="5" fill="#3a0f08"/>
<rect x="180" y="70" width="20" height="5" fill="#0e0508"/>
<rect x="200" y="70" width="5" height="5" fill="#382028"/>
<rect x="205" y="70" width="5" height="5" fill="#2a1820"/>
<rect x="210" y="70" width="5" height="5" fill="#180a0e"/>
<rect x="215" y="70" width="10" height="5" fill="#1e0e12"/>
<rect x="225" y="70" width="5" height="5" fill="#2a1a1e"/>
<rect x="230" y="70" width="10" height="5" fill="#4a3535"/>
<rect x="240" y="70" width="10" height="5" fill="#2a1a1e"/>
<rect x="250" y="70" width="40" height="5" fill="#ede0d0"/>
<rect x="290" y="70" width="5" height="5" fill="#d4c4b0"/>
<rect x="295" y="70" width="5" height="5" fill="#c4b4a0"/>
<rect x="300" y="70" width="10" height="5" fill="#ede0d0"/>
<rect x="310" y="70" width="5" height="5" fill="#d4c4b0"/>
<rect x="315" y="70" width="5" height="5" fill="#ede0d0"/>
<rect x="0" y="75" width="5" height="5" fill="#ede0d0"/>
<rect x="5" y="75" width="5" height="5" fill="#d4c4b0"/>
<rect x="10" y="75" width="10" height="5" fill="#ede0d0"/>
<rect x="20" y="75" width="5" height="5" fill="#c4b4a0"/>
<rect x="25" y="75" width="5" height="5" fill="#d4c4b0"/>
<rect x="30" y="75" width="45" height="5" fill="#ede0d0"/>
<rect x="75" y="75" width="10" height="5" fill="#2a1a1e"/>
<rect x="85" y="75" width="10" height="5" fill="#4a3535"/>
<rect x="95" y="75" width="5" height="5" fill="#2a1a1e"/>
<rect x="100" y="75" width="10" height="5" fill="#1e0e12"/>
<rect x="110" y="75" width="10" height="5" fill="#180a0e"/>
<rect x="120" y="75" width="5" height="5" fill="#0e0508"/>
<rect x="125" y="75" width="5" height="5" fill="#382028"/>
<rect x="130" y="75" width="10" height="5" fill="#0e0508"/>
<rect x="140" y="75" width="5" height="5" fill="#8b2500"/>
<rect x="145" y="75" width="5" height="5" fill="#3a0f08"/>
<rect x="150" y="75" width="25" height="5" fill="#8b2500"/>
<rect x="175" y="75" width="5" height="5" fill="#3a0f08"/>
<rect x="180" y="75" width="5" height="5" fill="#8b2500"/>
<rect x="185" y="75" width="5" height="5" fill="#3a0f08"/>
<rect x="190" y="75" width="10" height="5" fill="#0e0508"/>
<rect x="200" y="75" width="10" height="5" fill="#382028"/>
<rect x="210" y="75" width="5" height="5" fill="#2a1820"/>
<rect x="215" y="75" width="10" height="5" fill="#1e0e12"/>
<rect x="225" y="75" width="5" height="5" fill="#2a1a1e"/>
<rect x="230" y="75" width="10" height="5" fill="#4a3535"/>
<rect x="240" y="75" width="10" height="5" fill="#2a1a1e"/>
<rect x="250" y="75" width="40" height="5" fill="#ede0d0"/>
<rect x="290" y="75" width="5" height="5" fill="#d4c4b0"/>
<rect x="295" y="75" width="5" height="5" fill="#c4b4a0"/>
<rect x="300" y="75" width="10" height="5" fill="#ede0d0"/>
<rect x="310" y="75" width="5" height="5" fill="#d4c4b0"/>
<rect x="315" y="75" width="5" height="5" fill="#ede0d0"/>
<rect x="0" y="80" width="5" height="5" fill="#ede0d0"/>
<rect x="5" y="80" width="5" height="5" fill="#d4c4b0"/>
<rect x="10" y="80" width="10" height="5" fill="#ede0d0"/>
<rect x="20" y="80" width="5" height="5" fill="#c4b4a0"/>
<rect x="25" y="80" width="5" height="5" fill="#d4c4b0"/>
<rect x="30" y="80" width="40" height="5" fill="#ede0d0"/>
<rect x="70" y="80" width="15" height="5" fill="#2a1a1e"/>
<rect x="85" y="80" width="5" height="5" fill="#4a3535"/>
<rect x="90" y="80" width="10" height="5" fill="#2a1a1e"/>
<rect x="100" y="80" width="5" height="5" fill="#1e0e12"/>
<rect x="105" y="80" width="15" height="5" fill="#180a0e"/>
<rect x="120" y="80" width="15" height="5" fill="#0e0508"/>
<rect x="135" y="80" width="10" height="5" fill="#3a0f08"/>
<rect x="145" y="80" width="10" height="5" fill="#8b2500"/>
<rect x="155" y="80" width="15" height="5" fill="#c44530"/>
<rect x="170" y="80" width="10" height="5" fill="#8b2500"/>
<rect x="180" y="80" width="10" height="5" fill="#3a0f08"/>
<rect x="190" y="80" width="15" height="5" fill="#0e0508"/>
<rect x="205" y="80" width="5" height="5" fill="#382028"/>
<rect x="210" y="80" width="5" height="5" fill="#2a1820"/>
<rect x="215" y="80" width="5" height="5" fill="#180a0e"/>
<rect x="220" y="80" width="5" height="5" fill="#1e0e12"/>
<rect x="225" y="80" width="10" height="5" fill="#2a1a1e"/>
<rect x="235" y="80" width="5" height="5" fill="#4a3535"/>
<rect x="240" y="80" width="15" height="5" fill="#2a1a1e"/>
<rect x="255" y="80" width="35" height="5" fill="#ede0d0"/>
<rect x="290" y="80" width="5" height="5" fill="#d4c4b0"/>
<rect x="295" y="80" width="5" height="5" fill="#c4b4a0"/>
<rect x="300" y="80" width="10" height="5" fill="#ede0d0"/>
<rect x="310" y="80" width="5" height="5" fill="#d4c4b0"/>
<rect x="315" y="80" width="5" height="5" fill="#ede0d0"/>
<rect x="0" y="85" width="5" height="5" fill="#ede0d0"/>
<rect x="5" y="85" width="5" height="5" fill="#d4c4b0"/>
<rect x="10" y="85" width="10" height="5" fill="#ede0d0"/>
<rect x="20" y="85" width="5" height="5" fill="#c4b4a0"/>
<rect x="25" y="85" width="5" height="5" fill="#d4c4b0"/>
<rect x="30" y="85" width="40" height="5" fill="#ede0d0"/>
<rect x="70" y="85" width="15" height="5" fill="#2a1a1e"/>
<rect x="85" y="85" width="5" height="5" fill="#4a3535"/>
<rect x="90" y="85" width="5" height="5" fill="#2a1a1e"/>
<rect x="95" y="85" width="10" height="5" fill="#1e0e12"/>
<rect x="105" y="85" width="10" height="5" fill="#180a0e"/>
<rect x="115" y="85" width="15" height="5" fill="#0e0508"/>
<rect x="130" y="85" width="10" height="5" fill="#3a0f08"/>
<rect x="140" y="85" width="5" height="5" fill="#8b2500"/>
<rect x="145" y="85" width="5" height="5" fill="#c44530"/>
<rect x="150" y="85" width="25" height="5" fill="#e8634a"/>
<rect x="175" y="85" width="5" height="5" fill="#c44530"/>
<rect x="180" y="85" width="5" height="5" fill="#8b2500"/>
<rect x="185" y="85" width="10" height="5" fill="#3a0f08"/>
<rect x="195" y="85" width="10" height="5" fill="#0e0508"/>
<rect x="205" y="85" width="10" height="5" fill="#382028"/>
<rect x="215" y="85" width="5" height="5" fill="#2a1820"/>
<rect x="220" y="85" width="10" height="5" fill="#1e0e12"/>
<rect x="230" y="85" width="5" height="5" fill="#2a1a1e"/>
<rect x="235" y="85" width="5" height="5" fill="#4a3535"/>
<rect x="240" y="85" width="15" height="5" fill="#2a1a1e"/>
<rect x="255" y="85" width="35" height="5" fill="#ede0d0"/>
<rect x="290" y="85" width="5" height="5" fill="#d4c4b0"/>
<rect x="295" y="85" width="5" height="5" fill="#c4b4a0"/>
<rect x="300" y="85" width="10" height="5" fill="#ede0d0"/>
<rect x="310" y="85" width="5" height="5" fill="#d4c4b0"/>
<rect x="315" y="85" width="5" height="5" fill="#ede0d0"/>
<rect x="0" y="90" width="5" height="5" fill="#ede0d0"/>
<rect x="5" y="90" width="5" height="5" fill="#d4c4b0"/>
<rect x="10" y="90" width="5" height="5" fill="#ede0d0"/>
<rect x="15" y="90" width="5" height="5" fill="#c44530"/>
<rect x="20" y="90" width="5" height="5" fill="#c4b4a0"/>
<rect x="25" y="90" width="5" height="5" fill="#d4c4b0"/>
<rect x="30" y="90" width="40" height="5" fill="#ede0d0"/>
<rect x="70" y="90" width="10" height="5" fill="#2a1a1e"/>
<rect x="80" y="90" width="10" height="5" fill="#4a3535"/>
<rect x="90" y="90" width="5" height="5" fill="#2a1a1e"/>
<rect x="95" y="90" width="10" height="5" fill="#1e0e12"/>
<rect x="105" y="90" width="10" height="5" fill="#180a0e"/>
<rect x="115" y="90" width="10" height="5" fill="#0e0508"/>
<rect x="125" y="90" width="10" height="5" fill="#3a0f08"/>
<rect x="135" y="90" width="10" height="5" fill="#8b2500"/>
<rect x="145" y="90" width="10" height="5" fill="#e8634a"/>
<rect x="155" y="90" width="15" height="5" fill="#ff8c42"/>
<rect x="170" y="90" width="5" height="5" fill="#e8634a"/>
<rect x="175" y="90" width="5" height="5" fill="#c44530"/>
<rect x="180" y="90" width="10" height="5" fill="#8b2500"/>
<rect x="190" y="90" width="10" height="5" fill="#3a0f08"/>
<rect x="200" y="90" width="10" height="5" fill="#0e0508"/>
<rect x="210" y="90" width="5" height="5" fill="#382028"/>
<rect x="215" y="90" width="5" height="5" fill="#2a1820"/>
<rect x="220" y="90" width="10" height="5" fill="#1e0e12"/>
<rect x="230" y="90" width="5" height="5" fill="#2a1a1e"/>
<rect x="235" y="90" width="10" height="5" fill="#4a3535"/>
<rect x="245" y="90" width="10" height="5" fill="#2a1a1e"/>
<rect x="255" y="90" width="35" height="5" fill="#ede0d0"/>
<rect x="290" y="90" width="5" height="5" fill="#d4c4b0"/>
<rect x="295" y="90" width="5" height="5" fill="#c4b4a0"/>
<rect x="300" y="90" width="5" height="5" fill="#c44530"/>
<rect x="305" y="90" width="5" height="5" fill="#ede0d0"/>
<rect x="310" y="90" width="5" height="5" fill="#d4c4b0"/>
<rect x="315" y="90" width="5" height="5" fill="#ede0d0"/>
<rect x="0" y="95" width="5" height="5" fill="#ede0d0"/>
<rect x="5" y="95" width="5" height="5" fill="#d4c4b0"/>
<rect x="10" y="95" width="10" height="5" fill="#ede0d0"/>
<rect x="20" y="95" width="5" height="5" fill="#c4b4a0"/>
<rect x="25" y="95" width="5" height="5" fill="#d4c4b0"/>
<rect x="30" y="95" width="40" height="5" fill="#ede0d0"/>
<rect x="70" y="95" width="10" height="5" fill="#2a1a1e"/>
<rect x="80" y="95" width="10" height="5" fill="#4a3535"/>
<rect x="90" y="95" width="5" height="5" fill="#2a1a1e"/>
<rect x="95" y="95" width="10" height="5" fill="#1e0e12"/>
<rect x="105" y="95" width="10" height="5" fill="#180a0e"/>
<rect x="115" y="95" width="10" height="5" fill="#0e0508"/>
<rect x="125" y="95" width="5" height="5" fill="#3a0f08"/>
<rect x="130" y="95" width="10" height="5" fill="#8b2500"/>
<rect x="140" y="95" width="5" height="5" fill="#c44530"/>
<rect x="145" y="95" width="5" height="5" fill="#e8634a"/>
<rect x="150" y="95" width="10" height="5" fill="#ff8c42"/>
<rect x="160" y="95" width="10" height="5" fill="#ffb347"/>
<rect x="170" y="95" width="5" height="5" fill="#ff8c42"/>
<rect x="175" y="95" width="5" height="5" fill="#e8634a"/>
<rect x="180" y="95" width="5" height="5" fill="#c44530"/>
<rect x="185" y="95" width="10" height="5" fill="#8b2500"/>
<rect x="195" y="95" width="15" height="5" fill="#0e0508"/>
<rect x="210" y="95" width="5" height="5" fill="#382028"/>
<rect x="215" y="95" width="5" height="5" fill="#2a1820"/>
<rect x="220" y="95" width="10" height="5" fill="#1e0e12"/>
<rect x="230" y="95" width="5" height="5" fill="#2a1a1e"/>
<rect x="235" y="95" width="10" height="5" fill="#4a3535"/>
<rect x="245" y="95" width="10" height="5" fill="#2a1a1e"/>
<rect x="255" y="95" width="35" height="5" fill="#ede0d0"/>
<rect x="290" y="95" width="5" height="5" fill="#d4c4b0"/>
<rect x="295" y="95" width="5" height="5" fill="#c4b4a0"/>
<rect x="300" y="95" width="10" height="5" fill="#ede0d0"/>
<rect x="310" y="95" width="5" height="5" fill="#d4c4b0"/>
<rect x="315" y="95" width="5" height="5" fill="#ede0d0"/>
<rect x="0" y="100" width="5" height="5" fill="#ede0d0"/>
<rect x="5" y="100" width="5" height="5" fill="#d4c4b0"/>
<rect x="10" y="100" width="10" height="5" fill="#ede0d0"/>
<rect x="20" y="100" width="5" height="5" fill="#c4b4a0"/>
<rect x="25" y="100" width="5" height="5" fill="#d4c4b0"/>
<rect x="30" y="100" width="40" height="5" fill="#ede0d0"/>
<rect x="70" y="100" width="10" height="5" fill="#2a1a1e"/>
<rect x="80" y="100" width="10" height="5" fill="#4a3535"/>
<rect x="90" y="100" width="5" height="5" fill="#2a1a1e"/>
<rect x="95" y="100" width="10" height="5" fill="#1e0e12"/>
<rect x="105" y="100" width="10" height="5" fill="#180a0e"/>
<rect x="115" y="100" width="10" height="5" fill="#0e0508"/>
<rect x="125" y="100" width="10" height="5" fill="#3a0f08"/>
<rect x="135" y="100" width="5" height="5" fill="#8b2500"/>
<rect x="140" y="100" width="5" height="5" fill="#c44530"/>
<rect x="145" y="100" width="5" height="5" fill="#e8634a"/>
<rect x="150" y="100" width="5" height="5" fill="#ff8c42"/>
<rect x="155" y="100" width="5" height="5" fill="#ffb347"/>
<rect x="160" y="100" width="5" height="5" fill="#ffe8c0"/>
<rect x="165" y="100" width="5" height="5" fill="#ffb347"/>
<rect x="170" y="100" width="5" height="5" fill="#ff8c42"/>
<rect x="175" y="100" width="5" height="5" fill="#e8634a"/>
<rect x="180" y="100" width="5" height="5" fill="#c44530"/>
<rect x="185" y="100" width="5" height="5" fill="#8b2500"/>
<rect x="190" y="100" width="10" height="5" fill="#3a0f08"/>
<rect x="200" y="100" width="10" height="5" fill="#0e0508"/>
<rect x="210" y="100" width="5" height="5" fill="#382028"/>
<rect x="215" y="100" width="5" height="5" fill="#2a1820"/>
<rect x="220" y="100" width="10" height="5" fill="#1e0e12"/>
<rect x="230" y="100" width="5" height="5" fill="#2a1a1e"/>
<rect x="235" y="100" width="10" height="5" fill="#4a3535"/>
<rect x="245" y="100" width="10" height="5" fill="#2a1a1e"/>
<rect x="255" y="100" width="35" height="5" fill="#ede0d0"/>
<rect x="290" y="100" width="5" height="5" fill="#d4c4b0"/>
<rect x="295" y="100" width="5" height="5" fill="#c4b4a0"/>
<rect x="300" y="100" width="10" height="5" fill="#ede0d0"/>
<rect x="310" y="100" width="5" height="5" fill="#d4c4b0"/>
<rect x="315" y="100" width="5" height="5" fill="#ede0d0"/>
<rect x="0" y="105" width="5" height="5" fill="#ede0d0"/>
<rect x="5" y="105" width="5" height="5" fill="#d4c4b0"/>
<rect x="10" y="105" width="10" height="5" fill="#ede0d0"/>
<rect x="20" y="105" width="5" height="5" fill="#c4b4a0"/>
<rect x="25" y="105" width="5" height="5" fill="#d4c4b0"/>
<rect x="30" y="105" width="40" height="5" fill="#ede0d0"/>
<rect x="70" y="105" width="10" height="5" fill="#2a1a1e"/>
<rect x="80" y="105" width="10" height="5" fill="#4a3535"/>
<rect x="90" y="105" width="5" height="5" fill="#2a1a1e"/>
<rect x="95" y="105" width="10" height="5" fill="#1e0e12"/>
<rect x="105" y="105" width="10" height="5" fill="#180a0e"/>
<rect x="115" y="105" width="15" height="5" fill="#0e0508"/>
<rect x="130" y="105" width="10" height="5" fill="#8b2500"/>
<rect x="140" y="105" width="5" height="5" fill="#c44530"/>
<rect x="145" y="105" width="5" height="5" fill="#e8634a"/>
<rect x="150" y="105" width="10" height="5" fill="#ff8c42"/>
<rect x="160" y="105" width="5" height="5" fill="#ffb347"/>
<rect x="165" y="105" width="10" height="5" fill="#ff8c42"/>
<rect x="175" y="105" width="5" height="5" fill="#e8634a"/>
<rect x="180" y="105" width="5" height="5" fill="#c44530"/>
<rect x="185" y="105" width="10" height="5" fill="#8b2500"/>
<rect x="195" y="105" width="5" height="5" fill="#3a0f08"/>
<rect x="200" y="105" width="10" height="5" fill="#0e0508"/>
<rect x="210" y="105" width="5" height="5" fill="#382028"/>
<rect x="215" y="105" width="5" height="5" fill="#2a1820"/>
<rect x="220" y="105" width="10" height="5" fill="#1e0e12"/>
<rect x="230" y="105" width="5" height="5" fill="#2a1a1e"/>
<rect x="235" y="105" width="10" height="5" fill="#4a3535"/>
<rect x="245" y="105" width="10" height="5" fill="#2a1a1e"/>
<rect x="255" y="105" width="35" height="5" fill="#ede0d0"/>
<rect x="290" y="105" width="5" height="5" fill="#d4c4b0"/>
<rect x="295" y="105" width="5" height="5" fill="#c4b4a0"/>
<rect x="300" y="105" width="10" height="5" fill="#ede0d0"/>
<rect x="310" y="105" width="5" height="5" fill="#d4c4b0"/>
<rect x="315" y="105" width="5" height="5" fill="#ede0d0"/>
<rect x="0" y="110" width="5" height="5" fill="#ede0d0"/>
<rect x="5" y="110" width="5" height="5" fill="#d4c4b0"/>
<rect x="10" y="110" width="5" height="5" fill="#ede0d0"/>
<rect x="15" y="110" width="5" height="5" fill="#8b2500"/>
<rect x="20" y="110" width="5" height="5" fill="#c4b4a0"/>
<rect x="25" y="110" width="5" height="5" fill="#d4c4b0"/>
<rect x="30" y="110" width="40" height="5" fill="#ede0d0"/>
<rect x="70" y="110" width="10" height="5" fill="#2a1a1e"/>
<rect x="80" y="110" width="10" height="5" fill="#4a3535"/>
<rect x="90" y="110" width="5" height="5" fill="#2a1a1e"/>
<rect x="95" y="110" width="10" height="5" fill="#1e0e12"/>
<rect x="105" y="110" width="10" height="5" fill="#180a0e"/>
<rect x="115" y="110" width="10" height="5" fill="#0e0508"/>
<rect x="125" y="110" width="10" height="5" fill="#3a0f08"/>
<rect x="135" y="110" width="10" height="5" fill="#8b2500"/>
<rect x="145" y="110" width="10" height="5" fill="#e8634a"/>
<rect x="155" y="110" width="15" height="5" fill="#ff8c42"/>
<rect x="170" y="110" width="5" height="5" fill="#e8634a"/>
<rect x="175" y="110" width="5" height="5" fill="#c44530"/>
<rect x="180" y="110" width="10" height="5" fill="#8b2500"/>
<rect x="190" y="110" width="10" height="5" fill="#3a0f08"/>
<rect x="200" y="110" width="10" height="5" fill="#0e0508"/>
<rect x="210" y="110" width="10" height="5" fill="#180a0e"/>
<rect x="220" y="110" width="10" height="5" fill="#1e0e12"/>
<rect x="230" y="110" width="5" height="5" fill="#2a1a1e"/>
<rect x="235" y="110" width="10" height="5" fill="#4a3535"/>
<rect x="245" y="110" width="10" height="5" fill="#2a1a1e"/>
<rect x="255" y="110" width="35" height="5" fill="#ede0d0"/>
<rect x="290" y="110" width="5" height="5" fill="#d4c4b0"/>
<rect x="295" y="110" width="5" height="5" fill="#c4b4a0"/>
<rect x="300" y="110" width="5" height="5" fill="#8b2500"/>
<rect x="305" y="110" width="5" height="5" fill="#ede0d0"/>
<rect x="310" y="110" width="5" height="5" fill="#d4c4b0"/>
<rect x="315" y="110" width="5" height="5" fill="#ede0d0"/>
<rect x="0" y="115" width="5" height="5" fill="#ede0d0"/>
<rect x="5" y="115" width="5" height="5" fill="#d4c4b0"/>
<rect x="10" y="115" width="10" height="5" fill="#ede0d0"/>
<rect x="20" y="115" width="5" height="5" fill="#c4b4a0"/>
<rect x="25" y="115" width="5" height="5" fill="#d4c4b0"/>
<rect x="30" y="115" width="40" height="5" fill="#ede0d0"/>
<rect x="70" y="115" width="15" height="5" fill="#2a1a1e"/>
<rect x="85" y="115" width="5" height="5" fill="#4a3535"/>
<rect x="90" y="115" width="5" height="5" fill="#2a1a1e"/>
<rect x="95" y="115" width="10" height="5" fill="#1e0e12"/>
<rect x="105" y="115" width="10" height="5" fill="#180a0e"/>
<rect x="115" y="115" width="15" height="5" fill="#0e0508"/>
<rect x="130" y="115" width="10" height="5" fill="#3a0f08"/>
<rect x="140" y="115" width="5" height="5" fill="#8b2500"/>
<rect x="145" y="115" width="5" height="5" fill="#c44530"/>
<rect x="150" y="115" width="25" height="5" fill="#e8634a"/>
<rect x="175" y="115" width="5" height="5" fill="#c44530"/>
<rect x="180" y="115" width="5" height="5" fill="#8b2500"/>
<rect x="185" y="115" width="10" height="5" fill="#3a0f08"/>
<rect x="195" y="115" width="15" height="5" fill="#0e0508"/>
<rect x="210" y="115" width="10" height="5" fill="#180a0e"/>
<rect x="220" y="115" width="10" height="5" fill="#1e0e12"/>
<rect x="230" y="115" width="5" height="5" fill="#2a1a1e"/>
<rect x="235" y="115" width="5" height="5" fill="#4a3535"/>
<rect x="240" y="115" width="15" height="5" fill="#2a1a1e"/>
<rect x="255" y="115" width="35" height="5" fill="#ede0d0"/>
<rect x="290" y="115" width="5" height="5" fill="#d4c4b0"/>
<rect x="295" y="115" width="5" height="5" fill="#c4b4a0"/>
<rect x="300" y="115" width="10" height="5" fill="#ede0d0"/>
<rect x="310" y="115" width="5" height="5" fill="#d4c4b0"/>
<rect x="315" y="115" width="5" height="5" fill="#ede0d0"/>
<rect x="0" y="120" width="5" height="5" fill="#ede0d0"/>
<rect x="5" y="120" width="5" height="5" fill="#d4c4b0"/>
<rect x="10" y="120" width="10" height="5" fill="#ede0d0"/>
<rect x="20" y="120" width="5" height="5" fill="#c4b4a0"/>
<rect x="25" y="120" width="5" height="5" fill="#d4c4b0"/>
<rect x="30" y="120" width="40" height="5" fill="#ede0d0"/>
<rect x="70" y="120" width="15" height="5" fill="#2a1a1e"/>
<rect x="85" y="120" width="5" height="5" fill="#4a3535"/>
<rect x="90" y="120" width="10" height="5" fill="#2a1a1e"/>
<rect x="100" y="120" width="5" height="5" fill="#1e0e12"/>
<rect x="105" y="120" width="15" height="5" fill="#180a0e"/>
<rect x="120" y="120" width="15" height="5" fill="#0e0508"/>
<rect x="135" y="120" width="10" height="5" fill="#3a0f08"/>
<rect x="145" y="120" width="10" height="5" fill="#8b2500"/>
<rect x="155" y="120" width="15" height="5" fill="#c44530"/>
<rect x="170" y="120" width="10" height="5" fill="#8b2500"/>
<rect x="180" y="120" width="10" height="5" fill="#3a0f08"/>
<rect x="190" y="120" width="15" height="5" fill="#0e0508"/>
<rect x="205" y="120" width="15" height="5" fill="#180a0e"/>
<rect x="220" y="120" width="5" height="5" fill="#1e0e12"/>
<rect x="225" y="120" width="10" height="5" fill="#2a1a1e"/>
<rect x="235" y="120" width="5" height="5" fill="#4a3535"/>
<rect x="240" y="120" width="15" height="5" fill="#2a1a1e"/>
<rect x="255" y="120" width="35" height="5" fill="#ede0d0"/>
<rect x="290" y="120" width="5" height="5" fill="#d4c4b0"/>
<rect x="295" y="120" width="5" height="5" fill="#c4b4a0"/>
<rect x="300" y="120" width="10" height="5" fill="#ede0d0"/>
<rect x="310" y="120" width="5" height="5" fill="#d4c4b0"/>
<rect x="315" y="120" width="5" height="5" fill="#ede0d0"/>
<rect x="0" y="125" width="5" height="5" fill="#ede0d0"/>
<rect x="5" y="125" width="5" height="5" fill="#d4c4b0"/>
<rect x="10" y="125" width="10" height="5" fill="#ede0d0"/>
<rect x="20" y="125" width="5" height="5" fill="#c4b4a0"/>
<rect x="25" y="125" width="5" height="5" fill="#d4c4b0"/>
<rect x="30" y="125" width="45" height="5" fill="#ede0d0"/>
<rect x="75" y="125" width="10" height="5" fill="#2a1a1e"/>
<rect x="85" y="125" width="10" height="5" fill="#4a3535"/>
<rect x="95" y="125" width="5" height="5" fill="#2a1a1e"/>
<rect x="100" y="125" width="10" height="5" fill="#1e0e12"/>
<rect x="110" y="125" width="10" height="5" fill="#180a0e"/>
<rect x="120" y="125" width="10" height="5" fill="#0e0508"/>
<rect x="130" y="125" width="20" height="5" fill="#3a0f08"/>
<rect x="150" y="125" width="25" height="5" fill="#8b2500"/>
<rect x="175" y="125" width="10" height="5" fill="#3a0f08"/>
<rect x="185" y="125" width="5" height="5" fill="#0e0508"/>
<rect x="190" y="125" width="5" height="5" fill="#3a0f08"/>
<rect x="195" y="125" width="10" height="5" fill="#0e0508"/>
<rect x="205" y="125" width="10" height="5" fill="#180a0e"/>
<rect x="215" y="125" width="10" height="5" fill="#1e0e12"/>
<rect x="225" y="125" width="5" height="5" fill="#2a1a1e"/>
<rect x="230" y="125" width="10" height="5" fill="#4a3535"/>
<rect x="240" y="125" width="10" height="5" fill="#2a1a1e"/>
<rect x="250" y="125" width="40" height="5" fill="#ede0d0"/>
<rect x="290" y="125" width="5" height="5" fill="#d4c4b0"/>
<rect x="295" y="125" width="5" height="5" fill="#c4b4a0"/>
<rect x="300" y="125" width="10" height="5" fill="#ede0d0"/>
<rect x="310" y="125" width="5" height="5" fill="#d4c4b0"/>
<rect x="315" y="125" width="5" height="5" fill="#ede0d0"/>
<rect x="0" y="130" width="5" height="5" fill="#ede0d0"/>
<rect x="5" y="130" width="5" height="5" fill="#d4c4b0"/>
<rect x="10" y="130" width="10" height="5" fill="#ede0d0"/>
<rect x="20" y="130" width="5" height="5" fill="#c4b4a0"/>
<rect x="25" y="130" width="5" height="5" fill="#d4c4b0"/>
<rect x="30" y="130" width="45" height="5" fill="#ede0d0"/>
<rect x="75" y="130" width="10" height="5" fill="#2a1a1e"/>
<rect x="85" y="130" width="10" height="5" fill="#4a3535"/>
<rect x="95" y="130" width="5" height="5" fill="#2a1a1e"/>
<rect x="100" y="130" width="10" height="5" fill="#1e0e12"/>
<rect x="110" y="130" width="15" height="5" fill="#180a0e"/>
<rect x="125" y="130" width="20" height="5" fill="#0e0508"/>
<rect x="145" y="130" width="35" height="5" fill="#3a0f08"/>
<rect x="180" y="130" width="20" height="5" fill="#0e0508"/>
<rect x="200" y="130" width="15" height="5" fill="#180a0e"/>
<rect x="215" y="130" width="10" height="5" fill="#1e0e12"/>
<rect x="225" y="130" width="5" height="5" fill="#2a1a1e"/>
<rect x="230" y="130" width="10" height="5" fill="#4a3535"/>
<rect x="240" y="130" width="10" height="5" fill="#2a1a1e"/>
<rect x="250" y="130" width="40" height="5" fill="#ede0d0"/>
<rect x="290" y="130" width="5" height="5" fill="#d4c4b0"/>
<rect x="295" y="130" width="5" height="5" fill="#c4b4a0"/>
<rect x="300" y="130" width="10" height="5" fill="#ede0d0"/>
<rect x="310" y="130" width="5" height="5" fill="#d4c4b0"/>
<rect x="315" y="130" width="5" height="5" fill="#ede0d0"/>
<rect x="0" y="135" width="5" height="5" fill="#ede0d0"/>
<rect x="5" y="135" width="5" height="5" fill="#d4c4b0"/>
<rect x="10" y="135" width="10" height="5" fill="#ede0d0"/>
<rect x="20" y="135" width="5" height="5" fill="#c4b4a0"/>
<rect x="25" y="135" width="5" height="5" fill="#d4c4b0"/>
<rect x="30" y="135" width="45" height="5" fill="#ede0d0"/>
<rect x="75" y="135" width="15" height="5" fill="#2a1a1e"/>
<rect x="90" y="135" width="10" height="5" fill="#4a3535"/>
<rect x="100" y="135" width="5" height="5" fill="#2a1a1e"/>
<rect x="105" y="135" width="10" height="5" fill="#1e0e12"/>
<rect x="115" y="135" width="15" height="5" fill="#180a0e"/>
<rect x="130" y="135" width="20" height="5" fill="#0e0508"/>
<rect x="150" y="135" width="5" height="5" fill="#3a0f08"/>
<rect x="155" y="135" width="5" height="5" fill="#0e0508"/>
<rect x="160" y="135" width="15" height="5" fill="#3a0f08"/>
<rect x="175" y="135" width="20" height="5" fill="#0e0508"/>
<rect x="195" y="135" width="15" height="5" fill="#180a0e"/>
<rect x="210" y="135" width="10" height="5" fill="#1e0e12"/>
<rect x="220" y="135" width="5" height="5" fill="#2a1a1e"/>
<rect x="225" y="135" width="10" height="5" fill="#4a3535"/>
<rect x="235" y="135" width="15" height="5" fill="#2a1a1e"/>
<rect x="250" y="135" width="40" height="5" fill="#ede0d0"/>
<rect x="290" y="135" width="5" height="5" fill="#d4c4b0"/>
<rect x="295" y="135" width="5" height="5" fill="#c4b4a0"/>
<rect x="300" y="135" width="10" height="5" fill="#ede0d0"/>
<rect x="310" y="135" width="5" height="5" fill="#d4c4b0"/>
<rect x="315" y="135" width="5" height="5" fill="#ede0d0"/>
<rect x="0" y="140" width="5" height="5" fill="#ede0d0"/>
<rect x="5" y="140" width="5" height="5" fill="#d4c4b0"/>
<rect x="10" y="140" width="10" height="5" fill="#ede0d0"/>
<rect x="20" y="140" width="5" height="5" fill="#c4b4a0"/>
<rect x="25" y="140" width="5" height="5" fill="#d4c4b0"/>
<rect x="30" y="140" width="50" height="5" fill="#ede0d0"/>
<rect x="80" y="140" width="10" height="5" fill="#2a1a1e"/>
<rect x="90" y="140" width="10" height="5" fill="#4a3535"/>
<rect x="100" y="140" width="10" height="5" fill="#2a1a1e"/>
<rect x="110" y="140" width="10" height="5" fill="#1e0e12"/>
<rect x="120" y="140" width="15" height="5" fill="#180a0e"/>
<rect x="135" y="140" width="55" height="5" fill="#0e0508"/>
<rect x="190" y="140" width="15" height="5" fill="#180a0e"/>
<rect x="205" y="140" width="10" height="5" fill="#1e0e12"/>
<rect x="215" y="140" width="10" height="5" fill="#2a1a1e"/>
<rect x="225" y="140" width="10" height="5" fill="#4a3535"/>
<rect x="235" y="140" width="10" height="5" fill="#2a1a1e"/>
<rect x="245" y="140" width="45" height="5" fill="#ede0d0"/>
<rect x="290" y="140" width="5" height="5" fill="#d4c4b0"/>
<rect x="295" y="140" width="5" height="5" fill="#c4b4a0"/>
<rect x="300" y="140" width="10" height="5" fill="#ede0d0"/>
<rect x="310" y="140" width="5" height="5" fill="#d4c4b0"/>
<rect x="315" y="140" width="5" height="5" fill="#ede0d0"/>
<rect x="0" y="145" width="5" height="5" fill="#ede0d0"/>
<rect x="5" y="145" width="5" height="5" fill="#d4c4b0"/>
<rect x="10" y="145" width="10" height="5" fill="#ede0d0"/>
<rect x="20" y="145" width="5" height="5" fill="#c4b4a0"/>
<rect x="25" y="145" width="5" height="5" fill="#d4c4b0"/>
<rect x="30" y="145" width="50" height="5" fill="#ede0d0"/>
<rect x="80" y="145" width="15" height="5" fill="#2a1a1e"/>
<rect x="95" y="145" width="10" height="5" fill="#4a3535"/>
<rect x="105" y="145" width="5" height="5" fill="#2a1a1e"/>
<rect x="110" y="145" width="15" height="5" fill="#1e0e12"/>
<rect x="125" y="145" width="20" height="5" fill="#180a0e"/>
<rect x="145" y="145" width="35" height="5" fill="#0e0508"/>
<rect x="180" y="145" width="20" height="5" fill="#180a0e"/>
<rect x="200" y="145" width="15" height="5" fill="#1e0e12"/>
<rect x="215" y="145" width="5" height="5" fill="#2a1a1e"/>
<rect x="220" y="145" width="10" height="5" fill="#4a3535"/>
<rect x="230" y="145" width="15" height="5" fill="#2a1a1e"/>
<rect x="245" y="145" width="45" height="5" fill="#ede0d0"/>
<rect x="290" y="145" width="5" height="5" fill="#d4c4b0"/>
<rect x="295" y="145" width="5" height="5" fill="#c4b4a0"/>
<rect x="300" y="145" width="10" height="5" fill="#ede0d0"/>
<rect x="310" y="145" width="5" height="5" fill="#d4c4b0"/>
<rect x="315" y="145" width="5" height="5" fill="#ede0d0"/>
<rect x="0" y="150" width="5" height="5" fill="#ede0d0"/>
<rect x="5" y="150" width="5" height="5" fill="#d4c4b0"/>
<rect x="10" y="150" width="10" height="5" fill="#ede0d0"/>
<rect x="20" y="150" width="5" height="5" fill="#c4b4a0"/>
<rect x="25" y="150" width="5" height="5" fill="#d4c4b0"/>
<rect x="30" y="150" width="55" height="5" fill="#ede0d0"/>
<rect x="85" y="150" width="15" height="5" fill="#2a1a1e"/>
<rect x="100" y="150" width="10" height="5" fill="#4a3535"/>
<rect x="110" y="150" width="5" height="5" fill="#2a1a1e"/>
<rect x="115" y="150" width="15" height="5" fill="#1e0e12"/>
<rect x="130" y="150" width="65" height="5" fill="#180a0e"/>
<rect x="195" y="150" width="15" height="5" fill="#1e0e12"/>
<rect x="210" y="150" width="5" height="5" fill="#2a1a1e"/>
<rect x="215" y="150" width="10" height="5" fill="#4a3535"/>
<rect x="225" y="150" width="15" height="5" fill="#2a1a1e"/>
<rect x="240" y="150" width="50" height="5" fill="#ede0d0"/>
<rect x="290" y="150" width="5" height="5" fill="#d4c4b0"/>
<rect x="295" y="150" width="5" height="5" fill="#c4b4a0"/>
<rect x="300" y="150" width="10" height="5" fill="#ede0d0"/>
<rect x="310" y="150" width="5" height="5" fill="#d4c4b0"/>
<rect x="315" y="150" width="5" height="5" fill="#ede0d0"/>
<rect x="0" y="155" width="5" height="5" fill="#ede0d0"/>
<rect x="5" y="155" width="5" height="5" fill="#d4c4b0"/>
<rect x="10" y="155" width="10" height="5" fill="#ede0d0"/>
<rect x="20" y="155" width="5" height="5" fill="#c4b4a0"/>
<rect x="25" y="155" width="5" height="5" fill="#d4c4b0"/>
<rect x="30" y="155" width="60" height="5" fill="#ede0d0"/>
<rect x="90" y="155" width="15" height="5" fill="#2a1a1e"/>
<rect x="105" y="155" width="10" height="5" fill="#4a3535"/>
<rect x="115" y="155" width="10" height="5" fill="#2a1a1e"/>
<rect x="125" y="155" width="15" height="5" fill="#1e0e12"/>
<rect x="140" y="155" width="45" height="5" fill="#180a0e"/>
<rect x="185" y="155" width="15" height="5" fill="#1e0e12"/>
<rect x="200" y="155" width="10" height="5" fill="#2a1a1e"/>
<rect x="210" y="155" width="10" height="5" fill="#4a3535"/>
<rect x="220" y="155" width="15" height="5" fill="#2a1a1e"/>
<rect x="235" y="155" width="55" height="5" fill="#ede0d0"/>
<rect x="290" y="155" width="5" height="5" fill="#d4c4b0"/>
<rect x="295" y="155" width="5" height="5" fill="#c4b4a0"/>
<rect x="300" y="155" width="10" height="5" fill="#ede0d0"/>
<rect x="310" y="155" width="5" height="5" fill="#d4c4b0"/>
<rect x="315" y="155" width="5" height="5" fill="#ede0d0"/>
<rect x="0" y="160" width="5" height="5" fill="#ede0d0"/>
<rect x="5" y="160" width="5" height="5" fill="#d4c4b0"/>
<rect x="10" y="160" width="10" height="5" fill="#ede0d0"/>
<rect x="20" y="160" width="5" height="5" fill="#c4b4a0"/>
<rect x="25" y="160" width="5" height="5" fill="#d4c4b0"/>
<rect x="30" y="160" width="60" height="5" fill="#ede0d0"/>
<rect x="90" y="160" width="20" height="5" fill="#2a1a1e"/>
<rect x="110" y="160" width="10" height="5" fill="#4a3535"/>
<rect x="120" y="160" width="10" height="5" fill="#2a1a1e"/>
<rect x="130" y="160" width="65" height="5" fill="#1e0e12"/>
<rect x="195" y="160" width="10" height="5" fill="#2a1a1e"/>
<rect x="205" y="160" width="10" height="5" fill="#4a3535"/>
<rect x="215" y="160" width="20" height="5" fill="#2a1a1e"/>
<rect x="235" y="160" width="55" height="5" fill="#ede0d0"/>
<rect x="290" y="160" width="5" height="5" fill="#d4c4b0"/>
<rect x="295" y="160" width="5" height="5" fill="#c4b4a0"/>
<rect x="300" y="160" width="10" height="5" fill="#ede0d0"/>
<rect x="310" y="160" width="5" height="5" fill="#d4c4b0"/>
<rect x="315" y="160" width="5" height="5" fill="#ede0d0"/>
<rect x="0" y="165" width="5" height="5" fill="#ede0d0"/>
<rect x="5" y="165" width="5" height="5" fill="#d4c4b0"/>
<rect x="10" y="165" width="10" height="5" fill="#ede0d0"/>
<rect x="20" y="165" width="5" height="5" fill="#c4b4a0"/>
<rect x="25" y="165" width="5" height="5" fill="#d4c4b0"/>
<rect x="30" y="165" width="65" height="5" fill="#ede0d0"/>
<rect x="95" y="165" width="20" height="5" fill="#2a1a1e"/>
<rect x="115" y="165" width="15" height="5" fill="#4a3535"/>
<rect x="130" y="165" width="15" height="5" fill="#2a1a1e"/>
<rect x="145" y="165" width="35" height="5" fill="#1e0e12"/>
<rect x="180" y="165" width="15" height="5" fill="#2a1a1e"/>
<rect x="195" y="165" width="15" height="5" fill="#4a3535"/>
<rect x="210" y="165" width="20" height="5" fill="#2a1a1e"/>
<rect x="230" y="165" width="60" height="5" fill="#ede0d0"/>
<rect x="290" y="165" width="5" height="5" fill="#d4c4b0"/>
<rect x="295" y="165" width="5" height="5" fill="#c4b4a0"/>
<rect x="300" y="165" width="10" height="5" fill="#ede0d0"/>
<rect x="310" y="165" width="5" height="5" fill="#d4c4b0"/>
<rect x="315" y="165" width="5" height="5" fill="#ede0d0"/>
<rect x="0" y="170" width="5" height="5" fill="#ede0d0"/>
<rect x="5" y="170" width="5" height="5" fill="#d4c4b0"/>
<rect x="10" y="170" width="90" height="5" fill="#ede0d0"/>
<rect x="100" y="170" width="20" height="5" fill="#2a1a1e"/>
<rect x="120" y="170" width="20" height="5" fill="#4a3535"/>
<rect x="140" y="170" width="45" height="5" fill="#2a1a1e"/>
<rect x="185" y="170" width="20" height="5" fill="#4a3535"/>
<rect x="205" y="170" width="20" height="5" fill="#2a1a1e"/>
<rect x="225" y="170" width="85" height="5" fill="#ede0d0"/>
<rect x="310" y="170" width="5" height="5" fill="#d4c4b0"/>
<rect x="315" y="170" width="5" height="5" fill="#ede0d0"/>
<rect x="0" y="175" width="5" height="5" fill="#ede0d0"/>
<rect x="5" y="175" width="5" height="5" fill="#d4c4b0"/>
<rect x="10" y="175" width="5" height="5" fill="#ede0d0"/>
<rect x="15" y="175" width="5" height="5" fill="#d4c4b0"/>
<rect x="20" y="175" width="90" height="5" fill="#ede0d0"/>
<rect x="110" y="175" width="20" height="5" fill="#2a1a1e"/>
<rect x="130" y="175" width="65" height="5" fill="#4a3535"/>
<rect x="195" y="175" width="20" height="5" fill="#2a1a1e"/>
<rect x="215" y="175" width="85" height="5" fill="#ede0d0"/>
<rect x="300" y="175" width="5" height="5" fill="#d4c4b0"/>
<rect x="305" y="175" width="5" height="5" fill="#ede0d0"/>
<rect x="310" y="175" width="5" height="5" fill="#d4c4b0"/>
<rect x="315" y="175" width="5" height="5" fill="#ede0d0"/>
<rect x="0" y="180" width="15" height="5" fill="#ede0d0"/>
<rect x="15" y="180" width="10" height="5" fill="#d4c4b0"/>
<rect x="25" y="180" width="90" height="5" fill="#ede0d0"/>
<rect x="115" y="180" width="35" height="5" fill="#2a1a1e"/>
<rect x="150" y="180" width="25" height="5" fill="#4a3535"/>
<rect x="175" y="180" width="35" height="5" fill="#2a1a1e"/>
<rect x="210" y="180" width="85" height="5" fill="#ede0d0"/>
<rect x="295" y="180" width="10" height="5" fill="#d4c4b0"/>
<rect x="305" y="180" width="15" height="5" fill="#ede0d0"/>
<rect x="0" y="185" width="125" height="5" fill="#ede0d0"/>
<rect x="125" y="185" width="75" height="5" fill="#2a1a1e"/>
<rect x="200" y="185" width="120" height="5" fill="#ede0d0"/>
<rect x="0" y="190" width="20" height="5" fill="#ede0d0"/>
<rect x="20" y="190" width="280" height="5" fill="#d4c4b0"/>
<rect x="300" y="190" width="20" height="5" fill="#ede0d0"/>
<rect x="0" y="195" width="320" height="5" fill="#ede0d0"/>
</svg>