<svg xmlns="http://www.w3.org/2000/svg" viewBox="0 0 800 240" width="800" height="240" shape-rendering="crispEdges">
<rect width="800" height="240" fill="#0D1117"/>
<rect x="30" y="10" width="740" height="220" rx="4" fill="#120a0e"/>
<rect x="32" y="12" width="736" height="216" rx="3" fill="none" stroke="#1e1418" stroke-width="1.5"/>
<rect x="50" y="30" width="2" height="180" fill="#1e1418"/>
<rect x="56" y="30" width="1" height="180" fill="#2a1e22"/>
<rect x="72" y="90" width="6" height="6" rx="1" fill="#c44530"/>
<rect x="72" y="105" width="6" height="6" rx="1" fill="#8b2500"/>
<rect x="72" y="120" width="6" height="6" rx="1" fill="#3a0f08"/>
<rect x="72" y="135" width="6" height="6" rx="1" fill="#8b2500"/>
<rect x="72" y="150" width="6" height="6" rx="1" fill="#c44530"/>
<rect x="90" y="50" width="120" height="1" fill="#322428"/>
<rect x="90" y="189" width="120" height="1" fill="#322428"/>
<rect x="90" y="65" width="55" height="2" fill="#2a1e22" opacity="0.5"/>
<rect x="90" y="80" width="70" height="2" fill="#2a1e22" opacity="0.5"/>
<rect x="90" y="95" width="85" height="2" fill="#2a1e22" opacity="0.5"/>
<rect x="90" y="145" width="85" height="2" fill="#2a1e22" opacity="0.5"/>
<rect x="90" y="160" width="50" height="2" fill="#2a1e22" opacity="0.5"/>
<rect x="90" y="175" width="65" height="2" fill="#2a1e22" opacity="0.5"/>
<rect x="748" y="30" width="2" height="180" fill="#1e1418"/>
<rect x="743" y="30" width="1" height="180" fill="#2a1e22"/>
<rect x="722" y="90" width="6" height="6" rx="1" fill="#c44530"/>
<rect x="722" y="105" width="6" height="6" rx="1" fill="#8b2500"/>
<rect x="722" y="120" width="6" height="6" rx="1" fill="#3a0f08"/>
<rect x="722" y="135" width="6" height="6" rx="1" fill="#8b2500"/>
<rect x="722" y="150" width="6" height="6" rx="1" fill="#c44530"/>
<rect x="590" y="50" width="120" height="1" fill="#322428"/>
<rect x="590" y="189" width="120" height="1" fill="#322428"/>
<rect x="665" y="65" width="45" height="2" fill="#2a1e22" opacity="0.5"/>
<rect x="660" y="80" width="50" height="2" fill="#2a1e22" opacity="0.5"/>
<rect x="655" y="95" width="55" height="2" fill="#2a1e22" opacity="0.5"/>
<rect x="655" y="145" width="55" height="2" fill="#2a1e22" opacity="0.5"/>
<rect x="650" y="160" width="60" height="2" fill="#2a1e22" opacity="0.5"/>
<rect x="645" y="175" width="65" height="2" fill="#2a1e22" opacity="0.5"/>
<rect x="380" y="30" width="45" height="5" fill="#2a1a1e"/>
<rect x="365" y="35" width="75" height="5" fill="#2a1a1e"/>
<rect x="355" y="40" width="35" height="5" fill="#2a1a1e"/>
<rect x="390" y="40" width="25" height="5" fill="#4a3535"/>
<rect x="415" y="40" width="35" height="5" fill="#2a1a1e"/>
<rect x="350" y="45" width="20" height="5" fill="#2a1a1e"/>
<rect x="370" y="45" width="65" height="5" fill="#4a3535"/>
<rect x="435" y="45" width="20" height="5" fill="#2a1a1e"/>
<rect x="340" y="50" width="20" height="5" fill="#2a1a1e"/>
<rect x="360" y="50" width="20" height="5" fill="#4a3535"/>
<rect x="380" y="50" width="45" height="5" fill="#2a1a1e"/>
<rect x="425" y="50" width="20" height="5" fill="#4a3535"/>
<rect x="445" y="50" width="20" height="5" fill="#2a1a1e"/>
<rect x="335" y="55" width="20" height="5" fill="#2a1a1e"/>
<rect x="355" y="55" width="15" height="5" fill="#4a3535"/>
<rect x="370" y="55" width="15" height="5" fill="#2a1a1e"/>
<rect x="385" y="55" width="35" height="5" fill="#1e0e12"/>
<rect x="420" y="55" width="15" height="5" fill="#2a1a1e"/>
<rect x="435" y="55" width="15" height="5" fill="#4a3535"/>
<rect x="450" y="55" width="20" height="5" fill="#2a1a1e"/>
<rect x="330" y="60" width="20" height="5" fill="#2a1a1e"/>
<rect x="350" y="60" width="10" height="5" fill="#4a3535"/>
<rect x="360" y="60" width="10" height="5" fill="#2a1a1e"/>
<rect x="370" y="60" width="65" height="5" fill="#1e0e12"/>
<rect x="435" y="60" width="10" height="5" fill="#2a1a1e"/>
<rect x="445" y="60" width="10" height="5" fill="#4a3535"/>
<rect x="455" y="60" width="20" height="5" fill="#2a1a1e"/>
<rect x="330" y="65" width="15" height="5" fill="#2a1a1e"/>
<rect x="345" y="65" width="10" height="5" fill="#4a3535"/>
<rect x="355" y="65" width="10" height="5" fill="#2a1a1e"/>
<rect x="365" y="65" width="15" height="5" fill="#1e0e12"/>
<rect x="380" y="65" width="45" height="5" fill="#180a0e"/>
<rect x="425" y="65" width="15" height="5" fill="#1e0e12"/>
<rect x="440" y="65" width="10" height="5" fill="#2a1a1e"/>
<rect x="450" y="65" width="10" height="5" fill="#4a3535"/>
<rect x="460" y="65" width="15" height="5" fill="#2a1a1e"/>
<rect x="325" y="70" width="15" height="5" fill="#2a1a1e"/>
<rect x="340" y="70" width="10" height="5" fill="#4a3535"/>
<rect x="350" y="70" width="5" height="5" fill="#2a1a1e"/>
<rect x="355" y="70" width="15" height="5" fill="#1e0e12"/>
<rect x="370" y="70" width="65" height="5" fill="#180a0e"/>
<rect x="435" y="70" width="15" height="5" fill="#1e0e12"/>
<rect x="450" y="70" width="5" height="5" fill="#2a1a1e"/>
<rect x="455" y="70" width="10" height="5" fill="#4a3535"/>
<rect x="465" y="70" width="15" height="5" fill="#2a1a1e"/>
<rect x="320" y="75" width="15" height="5" fill="#2a1a1e"/>
<rect x="335" y="75" width="10" height="5" fill="#4a3535"/>
<rect x="345" y="75" width="5" height="5" fill="#2a1a1e"/>
<rect x="350" y="75" width="15" height="5" fill="#1e0e12"/>
<rect x="365" y="75" width="20" height="5" fill="#180a0e"/>
<rect x="385" y="75" width="35" height="5" fill="#0e0508"/>
<rect x="420" y="75" width="20" height="5" fill="#180a0e"/>
<rect x="440" y="75" width="15" height="5" fill="#1e0e12"/>
<rect x="455" y="75" width="5" height="5" fill="#2a1a1e"/>
<rect x="460" y="75" width="10" height="5" fill="#4a3535"/>
<rect x="470" y="75" width="15" height="5" fill="#2a1a1e"/>
<rect x="320" y="80" width="10" height="5" fill="#2a1a1e"/>
<rect x="330" y="80" width="10" height="5" fill="#4a3535"/>
<rect x="340" y="80" width="10" height="5" fill="#2a1a1e"/>
<rect x="350" y="80" width="10" height="5" fill="#1e0e12"/>
<rect x="360" y="80" width="15" height="5" fill="#180a0e"/>
<rect x="375" y="80" width="55" height="5" fill="#0e0508"/>
<rect x="430" y="80" width="5" height="5" fill="#382028"/>
<rect x="435" y="80" width="10" height="5" fill="#2a1820"/>
<rect x="445" y="80" width="10" height="5" fill="#1e0e12"/>
<rect x="455" y="80" width="10" height="5" fill="#2a1a1e"/>
<rect x="465" y="80" width="10" height="5" fill="#4a3535"/>
<rect x="475" y="80" width="10" height="5" fill="#2a1a1e"/>
<rect x="315" y="85" width="15" height="5" fill="#2a1a1e"/>
<rect x="330" y="85" width="10" height="5" fill="#4a3535"/>
<rect x="340" y="85" width="5" height="5" fill="#2a1a1e"/>
<rect x="345" y="85" width="10" height="5" fill="#1e0e12"/>
<rect x="355" y="85" width="15" height="5" fill="#180a0e"/>
<rect x="370" y="85" width="20" height="5" fill="#0e0508"/>
<rect x="390" y="85" width="15" height="5" fill="#3a0f08"/>
<rect x="405" y="85" width="5" height="5" fill="#0e0508"/>
<rect x="410" y="85" width="5" height="5" fill="#3a0f08"/>
<rect x="415" y="85" width="20" height="5" fill="#0e0508"/>
<rect x="435" y="85" width="10" height="5" fill="#382028"/>
<rect x="445" y="85" width="5" height="5" fill="#2a1820"/>
<rect x="450" y="85" width="10" height="5" fill="#1e0e12"/>
<rect x="460" y="85" width="5" height="5" fill="#2a1a1e"/>
<rect x="465" y="85" width="10" height="5" fill="#4a3535"/>
<rect x="475" y="85" width="15" height="5" fill="#2a1a1e"/>
<rect x="315" y="90" width="10" height="5" fill="#2a1a1e"/>
<rect x="325" y="90" width="10" height="5" fill="#4a3535"/>
<rect x="335" y="90" width="5" height="5" fill="#2a1a1e"/>
<rect x="340" y="90" width="10" height="5" fill="#1e0e12"/>
<rect x="350" y="90" width="15" height="5" fill="#180a0e"/>
<rect x="365" y="90" width="10" height="5" fill="#382028"/>
<rect x="375" y="90" width="10" height="5" fill="#0e0508"/>
<rect x="385" y="90" width="35" height="5" fill="#3a0f08"/>
<rect x="420" y="90" width="20" height="5" fill="#0e0508"/>
<rect x="440" y="90" width="5" height="5" fill="#382028"/>
<rect x="445" y="90" width="5" height="5" fill="#2a1820"/>
<rect x="450" y="90" width="5" height="5" fill="#180a0e"/>
<rect x="455" y="90" width="10" height="5" fill="#1e0e12"/>
<rect x="465" y="90" width="5" height="5" fill="#2a1a1e"/>
<rect x="470" y="90" width="10" height="5" fill="#4a3535"/>
<rect x="480" y="90" width="10" height="5" fill="#2a1a1e"/>
<rect x="315" y="95" width="10" height="5" fill="#2a1a1e"/>
<rect x="325" y="95" width="10" height="5" fill="#4a3535"/>
<rect x="335" y="95" width="5" height="5" fill="#2a1a1e"/>
<rect x="340" y="95" width="10" height="5" fill="#1e0e12"/>
<rect x="350" y="95" width="10" height="5" fill="#180a0e"/>
<rect x="360" y="95" width="5" height="5" fill="#0e0508"/>
<rect x="365" y="95" width="5" height="5" fill="#382028"/>
<rect x="370" y="95" width="10" height="5" fill="#0e0508"/>
<rect x="380" y="95" width="5" height="5" fill="#8b2500"/>
<rect x="385" y="95" width="5" height="5" fill="#3a0f08"/>
<rect x="390" y="95" width="25" height="5" fill="#8b2500"/>
<rect x="415" y="95" width="5" height="5" fill="#3a0f08"/>
<rect x="420" y="95" width="5" height="5" fill="#8b2500"/>
<rect x="425" y="95" width="5" height="5" fill="#3a0f08"/>
<rect x="430" y="95" width="10" height="5" fill="#0e0508"/>
<rect x="440" y="95" width="10" height="5" fill="#382028"/>
<rect x="450" y="95" width="5" height="5" fill="#2a1820"/>
<rect x="455" y="95" width="10" height="5" fill="#1e0e12"/>
<rect x="465" y="95" width="5" height="5" fill="#2a1a1e"/>
<rect x="470" y="95" width="10" height="5" fill="#4a3535"/>
<rect x="480" y="95" width="10" height="5" fill="#2a1a1e"/>
<rect x="310" y="100" width="15" height="5" fill="#2a1a1e"/>
<rect x="325" y="100" width="5" height="5" fill="#4a3535"/>
<rect x="330" y="100" width="10" height="5" fill="#2a1a1e"/>
<rect x="340" y="100" width="5" height="5" fill="#1e0e12"/>
<rect x="345" y="100" width="15" height="5" fill="#180a0e"/>
<rect x="360" y="100" width="15" height="5" fill="#0e0508"/>
<rect x="375" y="100" width="10" height="5" fill="#3a0f08"/>
<rect x="385" y="100" width="10" height="5" fill="#8b2500"/>
<rect x="395" y="100" width="15" height="5" fill="#c44530"/>
<rect x="410" y="100" width="10" height="5" fill="#8b2500"/>
<rect x="420" y="100" width="10" height="5" fill="#3a0f08"/>
<rect x="430" y="100" width="15" height="5" fill="#0e0508"/>
<rect x="445" y="100" width="5" height="5" fill="#382028"/>
<rect x="450" y="100" width="5" height="5" fill="#2a1820"/>
<rect x="455" y="100" width="5" height="5" fill="#180a0e"/>
<rect x="460" y="100" width="5" height="5" fill="#1e0e12"/>
<rect x="465" y="100" width="10" height="5" fill="#2a1a1e"/>
<rect x="475" y="100" width="5" height="5" fill="#4a3535"/>
<rect x="480" y="100" width="15" height="5" fill="#2a1a1e"/>
<rect x="310" y="105" width="15" height="5" fill="#2a1a1e"/>
<rect x="325" y="105" width="5" height="5" fill="#4a3535"/>
<rect x="330" y="105" width="5" height="5" fill="#2a1a1e"/>
<rect x="335" y="105" width="10" height="5" fill="#1e0e12"/>
<rect x="345" y="105" width="10" height="5" fill="#180a0e"/>
<rect x="355" y="105" width="15" height="5" fill="#0e0508"/>
<rect x="370" y="105" width="10" height="5" fill="#3a0f08"/>
<rect x="380" y="105" width="5" height="5" fill="#8b2500"/>
<rect x="385" y="105" width="5" height="5" fill="#c44530"/>
<rect x="390" y="105" width="25" height="5" fill="#e8634a"/>
<rect x="415" y="105" width="5" height="5" fill="#c44530"/>
<rect x="420" y="105" width="5" height="5" fill="#8b2500"/>
<rect x="425" y="105" width="10" height="5" fill="#3a0f08"/>
<rect x="435" y="105" width="10" height="5" fill="#0e0508"/>
<rect x="445" y="105" width="10" height="5" fill="#382028"/>
<rect x="455" y="105" width="5" height="5" fill="#2a1820"/>
<rect x="460" y="105" width="10" height="5" fill="#1e0e12"/>
<rect x="470" y="105" width="5" height="5" fill="#2a1a1e"/>
<rect x="475" y="105" width="5" height="5" fill="#4a3535"/>
<rect x="480" y="105" width="15" height="5" fill="#2a1a1e"/>
<rect x="310" y="110" width="10" height="5" fill="#2a1a1e"/>
<rect x="320" y="110" width="10" height="5" fill="#4a3535"/>
<rect x="330" y="110" width="5" height="5" fill="#2a1a1e"/>
<rect x="335" y="110" width="10" height="5" fill="#1e0e12"/>
<rect x="345" y="110" width="10" height="5" fill="#180a0e"/>
<rect x="355" y="110" width="10" height="5" fill="#0e0508"/>
<rect x="365" y="110" width="10" height="5" fill="#3a0f08"/>
<rect x="375" y="110" width="10" height="5" fill="#8b2500"/>
<rect x="385" y="110" width="10" height="5" fill="#e8634a"/>
<rect x="395" y="110" width="15" height="5" fill="#ff8c42"/>
<rect x="410" y="110" width="5" height="5" fill="#e8634a"/>
<rect x="415" y="110" width="5" height="5" fill="#c44530"/>
<rect x="420" y="110" width="10" height="5" fill="#8b2500"/>
<rect x="430" y="110" width="10" height="5" fill="#3a0f08"/>
<rect x="440" y="110" width="10" height="5" fill="#0e0508"/>
<rect x="450" y="110" width="5" height="5" fill="#382028"/>
<rect x="455" y="110" width="5" height="5" fill="#2a1820"/>
<rect x="460" y="110" width="10" height="5" fill="#1e0e12"/>
<rect x="470" y="110" width="5" height="5" fill="#2a1a1e"/>
<rect x="475" y="110" width="10" height="5" fill="#4a3535"/>
<rect x="485" y="110" width="10" height="5" fill="#2a1a1e"/>
<rect x="310" y="115" width="10" height="5" fill="#2a1a1e"/>
<rect x="320" y="115" width="10" height="5" fill="#4a3535"/>
<rect x="330" y="115" width="5" height="5" fill="#2a1a1e"/>
<rect x="335" y="115" width="10" height="5" fill="#1e0e12"/>
<rect x="345" y="115" width="10" height="5" fill="#180a0e"/>
<rect x="355" y="115" width="10" height="5" fill="#0e0508"/>
<rect x="365" y="115" width="5" height="5" fill="#3a0f08"/>
<rect x="370" y="115" width="10" height="5" fill="#8b2500"/>
<rect x="380" y="115" width="5" height="5" fill="#c44530"/>
<rect x="385" y="115" width="5" height="5" fill="#e8634a"/>
<rect x="390" y="115" width="10" height="5" fill="#ff8c42"/>
<rect x="400" y="115" width="10" height="5" fill="#ffb347"/>
<rect x="410" y="115" width="5" height="5" fill="#ff8c42"/>
<rect x="415" y="115" width="5" height="5" fill="#e8634a"/>
<rect x="420" y="115" width="5" height="5" fill="#c44530"/>
<rect x="425" y="115" width="10" height="5" fill="#8b2500"/>
<rect x="435" y="115" width="15" height="5" fill="#0e0508"/>
<rect x="450" y="115" width="5" height="5" fill="#382028"/>
<rect x="455" y="115" width="5" height="5" fill="#2a1820"/>
<rect x="460" y="115" width="10" height="5" fill="#1e0e12"/>
<rect x="470" y="115" width="5" height="5" fill="#2a1a1e"/>
<rect x="475" y="115" width="10" height="5" fill="#4a3535"/>
<rect x="485" y="115" width="10" height="5" fill="#2a1a1e"/>
<rect x="310" y="120" width="10" height="5" fill="#2a1a1e"/>
<rect x="320" y="120" width="10" height="5" fill="#4a3535"/>
<rect x="330" y="120" width="5" height="5" fill="#2a1a1e"/>
<rect x="335" y="120" width="10" height="5" fill="#1e0e12"/>
<rect x="345" y="120" width="10" height="5" fill="#180a0e"/>
<rect x="355" y="120" width="10" height="5" fill="#0e0508"/>
<rect x="365" y="120" width="10" height="5" fill="#3a0f08"/>
<rect x="375" y="120" width="5" height="5" fill="#8b2500"/>
<rect x="380" y="120" width="5" height="5" fill="#c44530"/>
<rect x="385" y="120" width="5" height="5" fill="#e8634a"/>
<rect x="390" y="120" width="5" height="5" fill="#ff8c42"/>
<rect x="395" y="120" width="5" height="5" fill="#ffb347"/>
<rect x="400" y="120" width="5" height="5" fill="#ffe8c0"/>
<rect x="405" y="120" width="5" height="5" fill="#ffb347"/>
<rect x="410" y="120" width="5" height="5" fill="#ff8c42"/>
<rect x="415" y="120" width="5" height="5" fill="#e8634a"/>
<rect x="420" y="120" width="5" height="5" fill="#c44530"/>
<rect x="425" y="120" width="5" height="5" fill="#8b2500"/>
<rect x="430" y="120" width="10" height="5" fill="#3a0f08"/>
<rect x="440" y="120" width="10" height="5" fill="#0e0508"/>
<rect x="450" y="120" width="5" height="5" fill="#382028"/>
<rect x="455" y="120" width="5" height="5" fill="#2a1820"/>
<rect x="460" y="120" width="10" height="5" fill="#1e0e12"/>
<rect x="470" y="120" width="5" height="5" fill="#2a1a1e"/>
<rect x="475" y="120" width="10" height="5" fill="#4a3535"/>
<rect x="485" y="120" width="10" height="5" fill="#2a1a1e"/>
<rect x="310" y="125" width="10" height="5" fill="#2a1a1e"/>
<rect x="320" y="125" width="10" height="5" fill="#4a3535"/>
<rect x="330" y="125" width="5" height="5" fill="#2a1a1e"/>
<rect x="335" y="125" width="10" height="5" fill="#1e0e12"/>
<rect x="345" y="125" width="10" height="5" fill="#180a0e"/>
<rect x="355" y="125" width="15" height="5" fill="#0e0508"/>
<rect x="370" y="125" width="10" height="5" fill="#8b2500"/>
<rect x="380" y="125" width="5" height="5" fill="#c44530"/>
<rect x="385" y="125" width="5" height="5" fill="#e8634a"/>
<rect x="390" y="125" width="10" height="5" fill="#ff8c42"/>
<rect x="400" y="125" width="5" height="5" fill="#ffb347"/>
<rect x="405" y="125" width="10" height="5" fill="#ff8c42"/>
<rect x="415" y="125" width="5" height="5" fill="#e8634a"/>
<rect x="420" y="125" width="5" height="5" fill="#c44530"/>
<rect x="425" y="125" width="10" height="5" fill="#8b2500"/>
<rect x="435" y="125" width="5" height="5" fill="#3a0f08"/>
<rect x="440" y="125" width="10" height="5" fill="#0e0508"/>
<rect x="450" y="125" width="5" height="5" fill="#382028"/>
<rect x="455" y="125" width="5" height="5" fill="#2a1820"/>
<rect x="460" y="125" width="10" height="5" fill="#1e0e12"/>
<rect x="470" y="125" width="5" height="5" fill="#2a1a1e"/>
<rect x="475" y="125" width="10" height="5" fill="#4a3535"/>
<rect x="485" y="125" width="10" height="5" fill="#2a1a1e"/>
<rect x="310" y="130" width="10" height="5" fill="#2a1a1e"/>
<rect x="320" y="130" width="10" height="5" fill="#4a3535"/>
<rect x="330" y="130" width="5" height="5" fill="#2a1a1e"/>
<rect x="335" y="130" width="10" height="5" fill="#1e0e12"/>
<rect x="345" y="130" width="10" height="5" fill="#180a0e"/>
<rect x="355" y="130" width="10" height="5" fill="#0e0508"/>
<rect x="365" y="130" width="10" height="5" fill="#3a0f08"/>
<rect x="375" y="130" width="10" height="5" fill="#8b2500"/>
<rect x="385" y="130" width="10" height="5" fill="#e8634a"/>
<rect x="395" y="130" width="15" height="5" fill="#ff8c42"/>
<rect x="410" y="130" width="5" height="5" fill="#e8634a"/>
<rect x="415" y="130" width="5" height="5" fill="#c44530"/>
<rect x="420" y="130" width="10" height="5" fill="#8b2500"/>
<rect x="430" y="130" width="10" height="5" fill="#3a0f08"/>
<rect x="440" y="130" width="10" height="5" fill="#0e0508"/>
<rect x="450" y="130" width="10" height="5" fill="#180a0e"/>
<rect x="460" y="130" width="10" height="5" fill="#1e0e12"/>
<rect x="470" y="130" width="5" height="5" fill="#2a1a1e"/>
<rect x="475" y="130" width="10" height="5" fill="#4a3535"/>
<rect x="485" y="130" width="10" height="5" fill="#2a1a1e"/>
<rect x="310" y="135" width="15" height="5" fill="#2a1a1e"/>
<rect x="325" y="135" width="5" height="5" fill="#4a3535"/>
<rect x="330" y="135" width="5" height="5" fill="#2a1a1e"/>
<rect x="335" y="135" width="10" height="5" fill="#1e0e12"/>
<rect x="345" y="135" width="10" height="5" fill="#180a0e"/>
<rect x="355" y="135" width="15" height="5" fill="#0e0508"/>
<rect x="370" y="135" width="10" height="5" fill="#3a0f08"/>
<rect x="380" y="135" width="5" height="5" fill="#8b2500"/>
<rect x="385" y="135" width="5" height="5" fill="#c44530"/>
<rect x="390" y="135" width="25" height="5" fill="#e8634a"/>
<rect x="415" y="135" width="5" height="5" fill="#c44530"/>
<rect x="420" y="135" width="5" height="5" fill="#8b2500"/>
<rect x="425" y="135" width="10" height="5" fill="#3a0f08"/>
<rect x="435" y="135" width="15" height="5" fill="#0e0508"/>
<rect x="450" y="135" width="10" height="5" fill="#180a0e"/>
<rect x="460" y="135" width="10" height="5" fill="#1e0e12"/>
<rect x="470" y="135" width="5" height="5" fill="#2a1a1e"/>
<rect x="475" y="135" width="5" height="5" fill="#4a3535"/>
<rect x="480" y="135" width="15" height="5" fill="#2a1a1e"/>
<rect x="310" y="140" width="15" height="5" fill="#2a1a1e"/>
<rect x="325" y="140" width="5" height="5" fill="#4a3535"/>
<rect x="330" y="140" width="10" height="5" fill="#2a1a1e"/>
<rect x="340" y="140" width="5" height="5" fill="#1e0e12"/>
<rect x="345" y="140" width="15" height="5" fill="#180a0e"/>
<rect x="360" y="140" width="15" height="5" fill="#0e0508"/>
<rect x="375" y="140" width="10" height="5" fill="#3a0f08"/>
<rect x="385" y="140" width="10" height="5" fill="#8b2500"/>
<rect x="395" y="140" width="15" height="5" fill="#c44530"/>
<rect x="410" y="140" width="10" height="5" fill="#8b2500"/>
<rect x="420" y="140" width="10" height="5" fill="#3a0f08"/>
<rect x="430" y="140" width="15" height="5" fill="#0e0508"/>
<rect x="445" y="140" width="15" height="5" fill="#180a0e"/>
<rect x="460" y="140" width="5" height="5" fill="#1e0e12"/>
<rect x="465" y="140" width="10" height="5" fill="#2a1a1e"/>
<rect x="475" y="140" width="5" height="5" fill="#4a3535"/>
<rect x="480" y="140" width="15" height="5" fill="#2a1a1e"/>
<rect x="315" y="145" width="10" height="5" fill="#2a1a1e"/>
<rect x="325" y="145" width="10" height="5" fill="#4a3535"/>
<rect x="335" y="145" width="5" height="5" fill="#2a1a1e"/>
<rect x="340" y="145" width="10" height="5" fill="#1e0e12"/>
<rect x="350" y="145" width="10" height="5" fill="#180a0e"/>
<rect x="360" y="145" width="10" height="5" fill="#0e0508"/>
<rect x="370" y="145" width="20" height="5" fill="#3a0f08"/>
<rect x="390" y="145" width="25" height="5" fill="#8b2500"/>
<rect x="415" y="145" width="10" height="5" fill="#3a0f08"/>
<rect x="425" y="145" width="5" height="5" fill="#0e0508"/>
<rect x="430" y="145" width="5" height="5" fill="#3a0f08"/>
<rect x="435" y="145" width="10" height="5" fill="#0e0508"/>
<rect x="445" y="145" width="10" height="5" fill="#180a0e"/>
<rect x="455" y="145" width="10" height="5" fill="#1e0e12"/>
<rect x="465" y="145" width="5" height="5" fill="#2a1a1e"/>
<rect x="470" y="145" width="10" height="5" fill="#4a3535"/>
<rect x="480" y="145" width="10" height="5" fill="#2a1a1e"/>
<rect x="315" y="150" width="10" height="5" fill="#2a1a1e"/>
<rect x="325" y="150" width="10" height="5" fill="#4a3535"/>
<rect x="335" y="150" width="5" height="5" fill="#2a1a1e"/>
<rect x="340" y="150" width="10" height="5" fill="#1e0e12"/>
<rect x="350" y="150" width="15" height="5" fill="#180a0e"/>
<rect x="365" y="150" width="20" height="5" fill="#0e0508"/>
<rect x="385" y="150" width="35" height="5" fill="#3a0f08"/>
<rect x="420" y="150" width="20" height="5" fill="#0e0508"/>
<rect x="440" y="150" width="15" height="5" fill="#180a0e"/>
<rect x="455" y="150" width="10" height="5" fill="#1e0e12"/>
<rect x="465" y="150" width="5" height="5" fill="#2a1a1e"/>
<rect x="470" y="150" width="10" height="5" fill="#4a3535"/>
<rect x="480" y="150" width="10" height="5" fill="#2a1a1e"/>
<rect x="315" y="155" width="15" height="5" fill="#2a1a1e"/>
<rect x="330" y="155" width="10" height="5" fill="#4a3535"/>
<rect x="340" y="155" width="5" height="5" fill="#2a1a1e"/>
<rect x="345" y="155" width="10" height="5" fill="#1e0e12"/>
<rect x="355" y="155" width="15" height="5" fill="#180a0e"/>
<rect x="370" y="155" width="20" height="5" fill="#0e0508"/>
<rect x="390" y="155" width="5" height="5" fill="#3a0f08"/>
<rect x="395" y="155" width="5" height="5" fill="#0e0508"/>
<rect x="400" y="155" width="15" height="5" fill="#3a0f08"/>
<rect x="415" y="155" width="20" height="5" fill="#0e0508"/>
<rect x="435" y="155" width="15" height="5" fill="#180a0e"/>
<rect x="450" y="155" width="10" height="5" fill="#1e0e12"/>
<rect x="460" y="155" width="5" height="5" fill="#2a1a1e"/>
<rect x="465" y="155" width="10" height="5" fill="#4a3535"/>
<rect x="475" y="155" width="15" height="5" fill="#2a1a1e"/>
<rect x="320" y="160" width="10" height="5" fill="#2a1a1e"/>
<rect x="330" y="160" width="10" height="5" fill="#4a3535"/>
<rect x="340" y="160" width="10" height="5" fill="#2a1a1e"/>
<rect x="350" y="160" width="10" height="5" fill="#1e0e12"/>
<rect x="360" y="160" width="15" height="5" fill="#180a0e"/>
<rect x="375" y="160" width="55" height="5" fill="#0e0508"/>
<rect x="430" y="160" width="15" height="5" fill="#180a0e"/>
<rect x="445" y="160" width="10" height="5" fill="#1e0e12"/>
<rect x="455" y="160" width="10" height="5" fill="#2a1a1e"/>
<rect x="465" y="160" width="10" height="5" fill="#4a3535"/>
<rect x="475" y="160" width="10" height="5" fill="#2a1a1e"/>
<rect x="320" y="165" width="15" height="5" fill="#2a1a1e"/>
<rect x="335" y="165" width="10" height="5" fill="#4a3535"/>
<rect x="345" y="165" width="5" height="5" fill="#2a1a1e"/>
<rect x="350" y="165" width="15" height="5" fill="#1e0e12"/>
<rect x="365" y="165" width="20" height="5" fill="#180a0e"/>
<rect x="385" y="165" width="35" height="5" fill="#0e0508"/>
<rect x="420" y="165" width="20" height="5" fill="#180a0e"/>
<rect x="440" y="165" width="15" height="5" fill="#1e0e12"/>
<rect x="455" y="165" width="5" height="5" fill="#2a1a1e"/>
<rect x="460" y="165" width="10" height="5" fill="#4a3535"/>
<rect x="470" y="165" width="15" height="5" fill="#2a1a1e"/>
<rect x="325" y="170" width="15" height="5" fill="#2a1a1e"/>
<rect x="340" y="170" width="10" height="5" fill="#4a3535"/>
<rect x="350" y="170" width="5" height="5" fill="#2a1a1e"/>
<rect x="355" y="170" width="15" height="5" fill="#1e0e12"/>
<rect x="370" y="170" width="65" height="5" fill="#180a0e"/>
<rect x="435" y="170" width="15" height="5" fill="#1e0e12"/>
<rect x="450" y="170" width="5" height="5" fill="#2a1a1e"/>
<rect x="455" y="170" width="10" height="5" fill="#4a3535"/>
<rect x="465" y="170" width="15" height="5" fill="#2a1a1e"/>
<rect x="330" y="175" width="15" height="5" fill="#2a1a1e"/>
<rect x="345" y="175" width="10" height="5" fill="#4a3535"/>
<rect x="355" y="175" width="10" height="5" fill="#2a1a1e"/>
<rect x="365" y="175" width="15" height="5" fill="#1e0e12"/>
<rect x="380" y="175" width="45" height="5" fill="#180a0e"/>
<rect x="425" y="175" width="15" height="5" fill="#1e0e12"/>
<rect x="440" y="175" width="10" height="5" fill="#2a1a1e"/>
<rect x="450" y="175" width="10" height="5" fill="#4a3535"/>
<rect x="460" y="175" width="15" height="5" fill="#2a1a1e"/>
<rect x="330" y="180" width="20" height="5" fill="#2a1a1e"/>
<rect x="350" y="180" width="10" height="5" fill="#4a3535"/>
<rect x="360" y="180" width="10" height="5" fill="#2a1a1e"/>
<rect x="370" y="180" width="65" height="5" fill="#1e0e12"/>
<rect x="435" y="180" width="10" height="5" fill="#2a1a1e"/>
<rect x="445" y="180" width="10" height="5" fill="#4a3535"/>
<rect x="455" y="180" width="20" height="5" fill="#2a1a1e"/>
<rect x="335" y="185" width="20" height="5" fill="#2a1a1e"/>
<rect x="355" y="185" width="15" height="5" fill="#4a3535"/>
<rect x="370" y="185" width="15" height="5" fill="#2a1a1e"/>
<rect x="385" y="185" width="35" height="5" fill="#1e0e12"/>
<rect x="420" y="185" width="15" height="5" fill="#2a1a1e"/>
<rect x="435" y="185" width="15" height="5" fill="#4a3535"/>
<rect x="450" y="185" width="20" height="5" fill="#2a1a1e"/>
<rect x="340" y="190" width="20" height="5" fill="#2a1a1e"/>
<rect x="360" y="190" width="20" height="5" fill="#4a3535"/>
<rect x="380" y="190" width="45" height="5" fill="#2a1a1e"/>
<rect x="425" y="190" width="20" height="5" fill="#4a3535"/>
<rect x="445" y="190" width="20" height="5" fill="#2a1a1e"/>
<rect x="350" y="195" width="20" height="5" fill="#2a1a1e"/>
<rect x="370" y="195" width="65" height="5" fill="#4a3535"/>
<rect x="435" y="195" width="20" height="5" fill="#2a1a1e"/>
<rect x="355" y="200" width="35" height="5" fill="#2a1a1e"/>
<rect x="390" y="200" width="25" height="5" fill="#4a3535"/>
<rect x="415" y="200" width="35" height="5" fill="#2a1a1e"/>
<rect x="365" y="205" width="75" height="5" fill="#2a1a1e"/>
<rect x="380" y="210" width="45" height="5" fill="#2a1a1e"/>
</svg>