<svg xmlns="http://www.w3.org/2000/svg" viewBox="0 0 120 120" width="120" height="120" shape-rendering="crispEdges">
<rect width="120" height="120" rx="8" fill="#161b22"/>
<rect x="1" y="1" width="118" height="118" rx="7" fill="none" stroke="#2a2e35" stroke-width="1"/>
<rect x="32" y="12" width="16" height="4" fill="#c44530"/>
<rect x="72" y="12" width="16" height="4" fill="#c44530"/>
<rect x="28" y="16" width="4" height="4" fill="#8b2500"/>
<rect x="32" y="16" width="4" height="4" fill="#c44530"/>
<rect x="44" y="16" width="4" height="4" fill="#c44530"/>
<rect x="48" y="16" width="4" height="4" fill="#e8634a"/>
<rect x="68" y="16" width="4" height="4" fill="#e8634a"/>
<rect x="72" y="16" width="4" height="4" fill="#c44530"/>
<rect x="84" y="16" width="4" height="4" fill="#c44530"/>
<rect x="88" y="16" width="4" height="4" fill="#8b2500"/>
<rect x="28" y="20" width="4" height="4" fill="#8b2500"/>
<rect x="48" y="20" width="4" height="4" fill="#c44530"/>
<rect x="52" y="20" width="4" height="4" fill="#ff8c42"/>
<rect x="56" y="20" width="4" height="4" fill="#8b2500"/>
<rect x="60" y="20" width="4" height="4" fill="#c44530"/>
<rect x="64" y="20" width="4" height="4" fill="#ff8c42"/>
<rect x="68" y="20" width="4" height="4" fill="#c44530"/>
<rect x="88" y="20" width="4" height="4" fill="#8b2500"/>
<rect x="28" y="24" width="4" height="4" fill="#8b2500"/>
<rect x="56" y="24" width="8" height="4" fill="#c44530"/>
<rect x="88" y="24" width="4" height="4" fill="#8b2500"/>
<rect x="28" y="28" width="4" height="4" fill="#8b2500"/>
<rect x="52" y="28" width="4" height="4" fill="#8b2500"/>
<rect x="56" y="28" width="8" height="4" fill="#c44530"/>
<rect x="64" y="28" width="4" height="4" fill="#8b2500"/>
<rect x="88" y="28" width="4" height="4" fill="#8b2500"/>
<rect x="28" y="32" width="4" height="4" fill="#8b2500"/>
<rect x="52" y="32" width="4" height="4" fill="#c44530"/>
<rect x="64" y="32" width="4" height="4" fill="#c44530"/>
<rect x="88" y="32" width="4" height="4" fill="#8b2500"/>
<rect x="28" y="36" width="4" height="4" fill="#8b2500"/>
<rect x="48" y="36" width="24" height="4" fill="#8b2500"/>
<rect x="88" y="36" width="4" height="4" fill="#8b2500"/>
<rect x="28" y="40" width="16" height="4" fill="#8b2500"/>
<rect x="44" y="40" width="4" height="4" fill="#e8634a"/>
<rect x="48" y="40" width="24" height="4" fill="#8b2500"/>
<rect x="72" y="40" width="4" height="4" fill="#ff8c42"/>
<rect x="76" y="40" width="16" height="4" fill="#8b2500"/>
<rect x="16" y="44" width="8" height="4" fill="#c44530"/>
<rect x="24" y="44" width="4" height="4" fill="#8b2500"/>
<rect x="28" y="44" width="4" height="4" fill="#c44530"/>
<rect x="32" y="44" width="4" height="4" fill="#8b2500"/>
<rect x="44" y="44" width="4" height="4" fill="#c44530"/>
<rect x="72" y="44" width="4" height="4" fill="#c44530"/>
<rect x="76" y="44" width="4" height="4" fill="#8b2500"/>
<rect x="84" y="44" width="4" height="4" fill="#8b2500"/>
<rect x="88" y="44" width="4" height="4" fill="#c44530"/>
<rect x="92" y="44" width="4" height="4" fill="#8b2500"/>
<rect x="96" y="44" width="8" height="4" fill="#c44530"/>
<rect x="12" y="48" width="8" height="4" fill="#c44530"/>
<rect x="32" y="48" width="4" height="4" fill="#8b2500"/>
<rect x="40" y="48" width="8" height="4" fill="#8b2500"/>
<rect x="72" y="48" width="8" height="4" fill="#8b2500"/>
<rect x="84" y="48" width="4" height="4" fill="#8b2500"/>
<rect x="100" y="48" width="8" height="4" fill="#c44530"/>
<rect x="12" y="52" width="4" height="4" fill="#8b2500"/>
<rect x="32" y="52" width="4" height="4" fill="#8b2500"/>
<rect x="36" y="52" width="4" height="4" fill="#e8634a"/>
<rect x="40" y="52" width="4" height="4" fill="#8b2500"/>
<rect x="52" y="52" width="4" height="4" fill="#8b2500"/>
<rect x="56" y="52" width="8" height="4" fill="#ff8c42"/>
<rect x="64" y="52" width="4" height="4" fill="#8b2500"/>
<rect x="76" y="52" width="4" height="4" fill="#8b2500"/>
<rect x="80" y="52" width="4" height="4" fill="#e8634a"/>
<rect x="84" y="52" width="4" height="4" fill="#8b2500"/>
<rect x="104" y="52" width="4" height="4" fill="#8b2500"/>
<rect x="36" y="56" width="4" height="4" fill="#ffe8c0"/>
<rect x="52" y="56" width="4" height="4" fill="#ff8c42"/>
<rect x="56" y="56" width="8" height="4" fill="#8b2500"/>
<rect x="64" y="56" width="4" height="4" fill="#ff8c42"/>
<rect x="80" y="56" width="4" height="4" fill="#ffe8c0"/>
<rect x="84" y="56" width="4" height="4" fill="#8b2500"/>
<rect x="36" y="60" width="4" height="4" fill="#ffe8c0"/>
<rect x="52" y="60" width="4" height="4" fill="#ff8c42"/>
<rect x="56" y="60" width="8" height="4" fill="#8b2500"/>
<rect x="64" y="60" width="4" height="4" fill="#ff8c42"/>
<rect x="80" y="60" width="4" height="4" fill="#ffe8c0"/>
<rect x="84" y="60" width="4" height="4" fill="#8b2500"/>
<rect x="12" y="64" width="4" height="4" fill="#8b2500"/>
<rect x="32" y="64" width="4" height="4" fill="#8b2500"/>
<rect x="36" y="64" width="4" height="4" fill="#e8634a"/>
<rect x="40" y="64" width="4" height="4" fill="#8b2500"/>
<rect x="52" y="64" width="4" height="4" fill="#8b2500"/>
<rect x="56" y="64" width="8" height="4" fill="#ff8c42"/>
<rect x="64" y="64" width="4" height="4" fill="#8b2500"/>
<rect x="76" y="64" width="4" height="4" fill="#8b2500"/>
<rect x="80" y="64" width="4" height="4" fill="#e8634a"/>
<rect x="84" y="64" width="4" height="4" fill="#8b2500"/>
<rect x="104" y="64" width="4" height="4" fill="#c44530"/>
<rect x="12" y="68" width="8" height="4" fill="#c44530"/>
<rect x="32" y="68" width="4" height="4" fill="#8b2500"/>
<rect x="40" y="68" width="8" height="4" fill="#8b2500"/>
<rect x="72" y="68" width="8" height="4" fill="#8b2500"/>
<rect x="84" y="68" width="4" height="4" fill="#8b2500"/>
<rect x="100" y="68" width="8" height="4" fill="#c44530"/>
<rect x="16" y="72" width="8" height="4" fill="#c44530"/>
<rect x="24" y="72" width="4" height="4" fill="#8b2500"/>
<rect x="28" y="72" width="4" height="4" fill="#c44530"/>
<rect x="32" y="72" width="4" height="4" fill="#8b2500"/>
<rect x="44" y="72" width="4" height="4" fill="#c44530"/>
<rect x="72" y="72" width="4" height="4" fill="#c44530"/>
<rect x="76" y="72" width="4" height="4" fill="#8b2500"/>
<rect x="84" y="72" width="4" height="4" fill="#8b2500"/>
<rect x="88" y="72" width="4" height="4" fill="#c44530"/>
<rect x="92" y="72" width="4" height="4" fill="#8b2500"/>
<rect x="96" y="72" width="8" height="4" fill="#c44530"/>
<rect x="28" y="76" width="16" height="4" fill="#8b2500"/>
<rect x="44" y="76" width="4" height="4" fill="#e8634a"/>
<rect x="48" y="76" width="24" height="4" fill="#8b2500"/>
<rect x="72" y="76" width="4" height="4" fill="#ff8c42"/>
<rect x="76" y="76" width="16" height="4" fill="#8b2500"/>
<rect x="28" y="80" width="4" height="4" fill="#8b2500"/>
<rect x="48" y="80" width="24" height="4" fill="#8b2500"/>
<rect x="88" y="80" width="4" height="4" fill="#8b2500"/>
<rect x="28" y="84" width="4" height="4" fill="#8b2500"/>
<rect x="52" y="84" width="4" height="4" fill="#c44530"/>
<rect x="64" y="84" width="4" height="4" fill="#c44530"/>
<rect x="88" y="84" width="4" height="4" fill="#8b2500"/>
<rect x="28" y="88" width="4" height="4" fill="#8b2500"/>
<rect x="52" y="88" width="8" height="4" fill="#8b2500"/>
<rect x="60" y="88" width="4" height="4" fill="#c44530"/>
<rect x="64" y="88" width="4" height="4" fill="#8b2500"/>
<rect x="88" y="88" width="4" height="4" fill="#8b2500"/>
<rect x="28" y="92" width="4" height="4" fill="#8b2500"/>
<rect x="56" y="92" width="8" height="4" fill="#c44530"/>
<rect x="88" y="92" width="4" height="4" fill="#8b2500"/>
<rect x="28" y="96" width="4" height="4" fill="#8b2500"/>
<rect x="48" y="96" width="4" height="4" fill="#c44530"/>
<rect x="52" y="96" width="4" height="4" fill="#ff8c42"/>
<rect x="56" y="96" width="4" height="4" fill="#c44530"/>
<rect x="60" y="96" width="4" height="4" fill="#8b2500"/>
<rect x="64" y="96" width="4" height="4" fill="#ff8c42"/>
<rect x="68" y="96" width="4" height="4" fill="#c44530"/>
<rect x="88" y="96" width="4" height="4" fill="#8b2500"/>
<rect x="28" y="100" width="4" height="4" fill="#8b2500"/>
<rect x="32" y="100" width="4" height="4" fill="#c44530"/>
<rect x="44" y="100" width="4" height="4" fill="#c44530"/>
<rect x="48" y="100" width="4" height="4" fill="#e8634a"/>
<rect x="68" y="100" width="4" height="4" fill="#e8634a"/>
<rect x="72" y="100" width="4" height="4" fill="#c44530"/>
<rect x="84" y="100" width="4" height="4" fill="#c44530"/>
<rect x="88" y="100" width="4" height="4" fill="#8b2500"/>
<rect x="32" y="104" width="8" height="4" fill="#c44530"/>
<rect x="40" y="104" width="4" height="4" fill="#8b2500"/>
<rect x="44" y="104" width="4" height="4" fill="#c44530"/>
<rect x="72" y="104" width="16" height="4" fill="#c44530"/>
</svg>