<svg xmlns="http://www.w3.org/2000/svg" viewBox="0 0 120 120" width="120" height="120" shape-rendering="crispEdges">
<rect width="120" height="120" rx="8" fill="#161b22"/>
<rect x="1" y="1" width="118" height="118" rx="7" fill="none" stroke="#2a2e35" stroke-width="1"/>
<rect x="44" y="12" width="32" height="4" fill="#8b2500"/>
<rect x="40" y="16" width="4" height="4" fill="#c44530"/>
<rect x="44" y="16" width="36" height="4" fill="#8b2500"/>
<rect x="36" y="20" width="8" height="4" fill="#8b2500"/>
<rect x="52" y="20" width="32" height="4" fill="#8b2500"/>
<rect x="36" y="24" width="8" height="4" fill="#8b2500"/>
<rect x="48" y="24" width="36" height="4" fill="#8b2500"/>
<rect x="36" y="28" width="4" height="4" fill="#8b2500"/>
<rect x="40" y="28" width="4" height="4" fill="#c44530"/>
<rect x="44" y="28" width="4" height="4" fill="#8b2500"/>
<rect x="48" y="28" width="8" height="4" fill="#c44530"/>
<rect x="56" y="28" width="28" height="4" fill="#8b2500"/>
<rect x="60" y="32" width="24" height="4" fill="#8b2500"/>
<rect x="20" y="36" width="64" height="4" fill="#8b2500"/>
<rect x="84" y="36" width="16" height="4" fill="#ffb347"/>
<rect x="16" y="40" width="4" height="4" fill="#8b2500"/>
<rect x="20" y="40" width="8" height="4" fill="#c44530"/>
<rect x="28" y="40" width="56" height="4" fill="#8b2500"/>
<rect x="84" y="40" width="20" height="4" fill="#ffb347"/>
<rect x="12" y="44" width="4" height="4" fill="#8b2500"/>
<rect x="16" y="44" width="4" height="4" fill="#c44530"/>
<rect x="20" y="44" width="64" height="4" fill="#8b2500"/>
<rect x="84" y="44" width="24" height="4" fill="#ffb347"/>
<rect x="12" y="48" width="72" height="4" fill="#8b2500"/>
<rect x="84" y="48" width="24" height="4" fill="#ffb347"/>
<rect x="12" y="52" width="68" height="4" fill="#8b2500"/>
<rect x="84" y="52" width="24" height="4" fill="#ffb347"/>
<rect x="12" y="56" width="64" height="4" fill="#8b2500"/>
<rect x="80" y="56" width="28" height="4" fill="#ffb347"/>
<rect x="12" y="60" width="28" height="4" fill="#8b2500"/>
<rect x="44" y="60" width="4" height="4" fill="#ffe8c0"/>
<rect x="48" y="60" width="60" height="4" fill="#ffb347"/>
<rect x="12" y="64" width="24" height="4" fill="#8b2500"/>
<rect x="40" y="64" width="68" height="4" fill="#ffb347"/>
<rect x="12" y="68" width="24" height="4" fill="#8b2500"/>
<rect x="36" y="68" width="72" height="4" fill="#ffb347"/>
<rect x="12" y="72" width="24" height="4" fill="#8b2500"/>
<rect x="36" y="72" width="72" height="4" fill="#ffb347"/>
<rect x="16" y="76" width="20" height="4" fill="#8b2500"/>
<rect x="36" y="76" width="68" height="4" fill="#ffb347"/>
<rect x="20" y="80" width="16" height="4" fill="#8b2500"/>
<rect x="36" y="80" width="64" height="4" fill="#ffb347"/>
<rect x="36" y="84" width="24" height="4" fill="#ffb347"/>
<rect x="36" y="88" width="48" height="4" fill="#ffb347"/>
<rect x="36" y="92" width="36" height="4" fill="#ffb347"/>
<rect x="76" y="92" width="8" height="4" fill="#ffb347"/>
<rect x="36" y="96" width="32" height="4" fill="#ffb347"/>
<rect x="76" y="96" width="8" height="4" fill="#ffb347"/>
<rect x="40" y="100" width="40" height="4" fill="#ffb347"/>
<rect x="44" y="104" width="32" height="4" fill="#ffb347"/>
</svg>