<svg xmlns="http://www.w3.org/2000/svg" viewBox="0 0 120 120" width="120" height="120" shape-rendering="crispEdges">
<rect width="120" height="120" rx="8" fill="#161b22"/>
<rect x="1" y="1" width="118" height="118" rx="7" fill="none" stroke="#2a2e35" stroke-width="1"/>
<rect x="48" y="12" width="4" height="4" fill="#e8634a"/>
<rect x="56" y="12" width="8" height="4" fill="#e8634a"/>
<rect x="68" y="12" width="4" height="4" fill="#e8634a"/>
<rect x="40" y="16" width="40" height="4" fill="#e8634a"/>
<rect x="32" y="20" width="24" height="4" fill="#e8634a"/>
<rect x="60" y="20" width="28" height="4" fill="#e8634a"/>
<rect x="28" y="24" width="64" height="4" fill="#e8634a"/>
<rect x="24" y="28" width="20" height="4" fill="#e8634a"/>
<rect x="56" y="28" width="8" height="4" fill="#e8634a"/>
<rect x="76" y="28" width="20" height="4" fill="#e8634a"/>
<rect x="20" y="32" width="16" height="4" fill="#e8634a"/>
<rect x="84" y="32" width="16" height="4" fill="#e8634a"/>
<rect x="20" y="36" width="60" height="4" fill="#e8634a"/>
<rect x="88" y="36" width="12" height="4" fill="#e8634a"/>
<rect x="16" y="40" width="68" height="4" fill="#e8634a"/>
<rect x="88" y="40" width="16" height="4" fill="#e8634a"/>
<rect x="16" y="44" width="68" height="4" fill="#e8634a"/>
<rect x="88" y="44" width="16" height="4" fill="#e8634a"/>
<rect x="12" y="48" width="12" height="4" fill="#e8634a"/>
<rect x="28" y="48" width="4" height="4" fill="#e8634a"/>
<rect x="36" y="48" width="16" height="4" fill="#e8634a"/>
<rect x="68" y="48" width="16" height="4" fill="#e8634a"/>
<rect x="88" y="48" width="4" height="4" fill="#e8634a"/>
<rect x="96" y="48" width="12" height="4" fill="#e8634a"/>
<rect x="16" y="52" width="16" height="4" fill="#e8634a"/>
<rect x="36" y="52" width="48" height="4" fill="#e8634a"/>
<rect x="88" y="52" width="16" height="4" fill="#e8634a"/>
<rect x="12" y="56" width="12" height="4" fill="#e8634a"/>
<rect x="36" y="56" width="44" height="4" fill="#e8634a"/>
<rect x="96" y="56" width="12" height="4" fill="#e8634a"/>
<rect x="12" y="60" width="12" height="4" fill="#e8634a"/>
<rect x="36" y="60" width="44" height="4" fill="#e8634a"/>
<rect x="92" y="60" width="16" height="4" fill="#e8634a"/>
<rect x="16" y="64" width="8" height="4" fill="#e8634a"/>
<rect x="36" y="64" width="16" height="4" fill="#e8634a"/>
<rect x="64" y="64" width="20" height="4" fill="#e8634a"/>
<rect x="92" y="64" width="12" height="4" fill="#e8634a"/>
<rect x="12" y="68" width="48" height="4" fill="#e8634a"/>
<rect x="68" y="68" width="40" height="4" fill="#e8634a"/>
<rect x="16" y="72" width="44" height="4" fill="#e8634a"/>
<rect x="68" y="72" width="36" height="4" fill="#e8634a"/>
<rect x="16" y="76" width="44" height="4" fill="#e8634a"/>
<rect x="68" y="76" width="36" height="4" fill="#e8634a"/>
<rect x="20" y="80" width="16" height="4" fill="#e8634a"/>
<rect x="40" y="80" width="4" height="4" fill="#e8634a"/>
<rect x="76" y="80" width="4" height="4" fill="#e8634a"/>
<rect x="84" y="80" width="16" height="4" fill="#e8634a"/>
<rect x="20" y="84" width="24" height="4" fill="#e8634a"/>
<rect x="76" y="84" width="24" height="4" fill="#e8634a"/>
<rect x="24" y="88" width="12" height="4" fill="#e8634a"/>
<rect x="40" y="88" width="4" height="4" fill="#e8634a"/>
<rect x="72" y="88" width="8" height="4" fill="#e8634a"/>
<rect x="84" y="88" width="12" height="4" fill="#e8634a"/>
<rect x="28" y="92" width="28" height="4" fill="#e8634a"/>
<rect x="64" y="92" width="28" height="4" fill="#e8634a"/>
<rect x="32" y="96" width="56" height="4" fill="#e8634a"/>
<rect x="40" y="100" width="40" height="4" fill="#e8634a"/>
<rect x="48" y="104" width="4" height="4" fill="#e8634a"/>
<rect x="56" y="104" width="8" height="4" fill="#e8634a"/>
<rect x="68" y="104" width="4" height="4" fill="#e8634a"/>
</svg>