<svg xmlns="http://www.w3.org/2000/svg" viewBox="0 0 96 96" width="96" height="96">
<rect width="96" height="96" rx="8" fill="#140e10"/>
<rect x="1" y="1" width="94" height="94" rx="7" fill="none" stroke="#221a1c" stroke-width="1"/>
<rect x="32" y="24" width="28" height="4" fill="#ffb347"/>
<rect x="28" y="28" width="8" height="4" fill="#ffb347"/>
<rect x="36" y="28" width="4" height="4" fill="#ffe8c0"/>
<rect x="28" y="32" width="20" height="4" fill="#ffb347"/>
<rect x="44" y="36" width="4" height="4" fill="#ffb347"/>
<rect x="44" y="40" width="4" height="4" fill="#ffb347"/>
<rect x="44" y="44" width="4" height="4" fill="#ffb347"/>
<rect x="48" y="48" width="4" height="4" fill="#ff8c42"/>
<rect x="48" y="52" width="4" height="4" fill="#ff8c42"/>
<rect x="48" y="56" width="4" height="4" fill="#ff8c42"/>
<rect x="48" y="60" width="20" height="4" fill="#ff8c42"/>
<rect x="56" y="64" width="4" height="4" fill="#ffe8c0"/>
<rect x="60" y="64" width="8" height="4" fill="#ff8c42"/>
<rect x="36" y="68" width="28" height="4" fill="#ff8c42"/>
</svg>