<svg xmlns="http://www.w3.org/2000/svg" viewBox="0 0 96 96" width="96" height="96">
<rect width="96" height="96" rx="8" fill="#140e10"/>
<rect x="1" y="1" width="94" height="94" rx="7" fill="none" stroke="#221a1c" stroke-width="1"/>
<rect x="44" y="16" width="4" height="4" fill="#c44530"/>
<rect x="24" y="24" width="4" height="4" fill="#c44530"/>
<rect x="36" y="24" width="20" height="4" fill="#c44530"/>
<rect x="64" y="24" width="4" height="4" fill="#c44530"/>
<rect x="28" y="28" width="8" height="4" fill="#c44530"/>
<rect x="52" y="28" width="12" height="4" fill="#c44530"/>
<rect x="28" y="32" width="4" height="4" fill="#c44530"/>
<rect x="36" y="32" width="16" height="4" fill="#e8634a"/>
<rect x="60" y="32" width="4" height="4" fill="#c44530"/>
<rect x="24" y="36" width="8" height="4" fill="#c44530"/>
<rect x="36" y="36" width="24" height="4" fill="#e8634a"/>
<rect x="64" y="36" width="4" height="4" fill="#c44530"/>
<rect x="24" y="40" width="4" height="4" fill="#c44530"/>
<rect x="32" y="40" width="4" height="4" fill="#e8634a"/>
<rect x="40" y="40" width="4" height="4" fill="#e8634a"/>
<rect x="48" y="40" width="4" height="4" fill="#e8634a"/>
<rect x="56" y="40" width="4" height="4" fill="#e8634a"/>
<rect x="64" y="40" width="4" height="4" fill="#c44530"/>
<rect x="16" y="44" width="4" height="4" fill="#c44530"/>
<rect x="24" y="44" width="4" height="4" fill="#c44530"/>
<rect x="32" y="44" width="4" height="4" fill="#e8634a"/>
<rect x="40" y="44" width="12" height="4" fill="#e8634a"/>
<rect x="56" y="44" width="4" height="4" fill="#e8634a"/>
<rect x="64" y="44" width="4" height="4" fill="#c44530"/>
<rect x="72" y="44" width="4" height="4" fill="#c44530"/>
<rect x="24" y="48" width="4" height="4" fill="#c44530"/>
<rect x="32" y="48" width="4" height="4" fill="#e8634a"/>
<rect x="40" y="48" width="4" height="4" fill="#e8634a"/>
<rect x="48" y="48" width="4" height="4" fill="#8b2500"/>
<rect x="56" y="48" width="4" height="4" fill="#e8634a"/>
<rect x="64" y="48" width="4" height="4" fill="#c44530"/>
<rect x="24" y="52" width="8" height="4" fill="#c44530"/>
<rect x="36" y="52" width="8" height="4" fill="#e8634a"/>
<rect x="48" y="52" width="4" height="4" fill="#8b2500"/>
<rect x="52" y="52" width="4" height="4" fill="#e8634a"/>
<rect x="64" y="52" width="4" height="4" fill="#c44530"/>
<rect x="28" y="56" width="4" height="4" fill="#c44530"/>
<rect x="40" y="56" width="12" height="4" fill="#e8634a"/>
<rect x="60" y="56" width="4" height="4" fill="#c44530"/>
<rect x="28" y="60" width="12" height="4" fill="#c44530"/>
<rect x="52" y="60" width="12" height="4" fill="#c44530"/>
<rect x="24" y="64" width="4" height="4" fill="#c44530"/>
<rect x="36" y="64" width="20" height="4" fill="#c44530"/>
<rect x="64" y="64" width="4" height="4" fill="#c44530"/>
<rect x="44" y="72" width="4" height="4" fill="#c44530"/>
</svg>