<svg xmlns="http://www.w3.org/2000/svg" viewBox="0 0 120 120" width="120" height="120" shape-rendering="crispEdges">
<rect width="120" height="120" rx="8" fill="#140e10"/>
<rect x="1" y="1" width="118" height="118" rx="7" fill="none" stroke="#221a1c" stroke-width="1"/>
<rect x="56" y="12" width="12" height="4" fill="#ff8c42"/>
<rect x="52" y="16" width="8" height="4" fill="#ff8c42"/>
<rect x="60" y="16" width="4" height="4" fill="#e8634a"/>
<rect x="64" y="16" width="8" height="4" fill="#ff8c42"/>
<rect x="44" y="20" width="4" height="4" fill="#e8634a"/>
<rect x="48" y="20" width="8" height="4" fill="#ff8c42"/>
<rect x="56" y="20" width="12" height="4" fill="#e8634a"/>
<rect x="68" y="20" width="4" height="4" fill="#ff8c42"/>
<rect x="72" y="20" width="4" height="4" fill="#e8634a"/>
<rect x="40" y="24" width="12" height="4" fill="#ff8c42"/>
<rect x="52" y="24" width="20" height="4" fill="#e8634a"/>
<rect x="72" y="24" width="4" height="4" fill="#ff8c42"/>
<rect x="76" y="24" width="4" height="4" fill="#e8634a"/>
<rect x="32" y="28" width="8" height="4" fill="#e8634a"/>
<rect x="40" y="28" width="4" height="4" fill="#ff8c42"/>
<rect x="44" y="28" width="36" height="4" fill="#e8634a"/>
<rect x="28" y="32" width="4" height="4" fill="#c44530"/>
<rect x="32" y="32" width="4" height="4" fill="#e8634a"/>
<rect x="36" y="32" width="44" height="4" fill="#8b2500"/>
<rect x="80" y="32" width="4" height="4" fill="#c44530"/>
<rect x="84" y="32" width="4" height="4" fill="#e8634a"/>
<rect x="28" y="36" width="4" height="4" fill="#8b2500"/>
<rect x="32" y="36" width="4" height="4" fill="#ff8c42"/>
<rect x="36" y="36" width="4" height="4" fill="#c44530"/>
<rect x="40" y="36" width="44" height="4" fill="#8b2500"/>
<rect x="84" y="36" width="8" height="4" fill="#e8634a"/>
<rect x="24" y="40" width="8" height="4" fill="#8b2500"/>
<rect x="32" y="40" width="4" height="4" fill="#e8634a"/>
<rect x="36" y="40" width="4" height="4" fill="#ff8c42"/>
<rect x="40" y="40" width="4" height="4" fill="#c44530"/>
<rect x="44" y="40" width="40" height="4" fill="#8b2500"/>
<rect x="84" y="40" width="4" height="4" fill="#c44530"/>
<rect x="88" y="40" width="8" height="4" fill="#e8634a"/>
<rect x="20" y="44" width="12" height="4" fill="#8b2500"/>
<rect x="32" y="44" width="8" height="4" fill="#e8634a"/>
<rect x="40" y="44" width="4" height="4" fill="#ff8c42"/>
<rect x="44" y="44" width="4" height="4" fill="#c44530"/>
<rect x="48" y="44" width="36" height="4" fill="#8b2500"/>
<rect x="84" y="44" width="4" height="4" fill="#c44530"/>
<rect x="88" y="44" width="12" height="4" fill="#e8634a"/>
<rect x="20" y="48" width="12" height="4" fill="#8b2500"/>
<rect x="32" y="48" width="12" height="4" fill="#e8634a"/>
<rect x="44" y="48" width="4" height="4" fill="#ff8c42"/>
<rect x="48" y="48" width="4" height="4" fill="#c44530"/>
<rect x="52" y="48" width="36" height="4" fill="#8b2500"/>
<rect x="88" y="48" width="16" height="4" fill="#e8634a"/>
<rect x="16" y="52" width="16" height="4" fill="#8b2500"/>
<rect x="32" y="52" width="16" height="4" fill="#e8634a"/>
<rect x="48" y="52" width="4" height="4" fill="#ff8c42"/>
<rect x="52" y="52" width="4" height="4" fill="#c44530"/>
<rect x="56" y="52" width="32" height="4" fill="#8b2500"/>
<rect x="88" y="52" width="4" height="4" fill="#c44530"/>
<rect x="92" y="52" width="16" height="4" fill="#e8634a"/>
<rect x="12" y="56" width="20" height="4" fill="#8b2500"/>
<rect x="32" y="56" width="20" height="4" fill="#e8634a"/>
<rect x="52" y="56" width="4" height="4" fill="#ff8c42"/>
<rect x="56" y="56" width="4" height="4" fill="#c44530"/>
<rect x="60" y="56" width="28" height="4" fill="#8b2500"/>
<rect x="88" y="56" width="4" height="4" fill="#c44530"/>
<rect x="92" y="56" width="16" height="4" fill="#e8634a"/>
<rect x="12" y="60" width="20" height="4" fill="#8b2500"/>
<rect x="32" y="60" width="24" height="4" fill="#e8634a"/>
<rect x="56" y="60" width="4" height="4" fill="#ff8c42"/>
<rect x="60" y="60" width="4" height="4" fill="#c44530"/>
<rect x="64" y="60" width="28" height="4" fill="#8b2500"/>
<rect x="92" y="60" width="16" height="4" fill="#e8634a"/>
<rect x="12" y="64" width="20" height="4" fill="#8b2500"/>
<rect x="32" y="64" width="28" height="4" fill="#e8634a"/>
<rect x="60" y="64" width="4" height="4" fill="#ff8c42"/>
<rect x="64" y="64" width="4" height="4" fill="#c44530"/>
<rect x="68" y="64" width="24" height="4" fill="#8b2500"/>
<rect x="92" y="64" width="4" height="4" fill="#c44530"/>
<rect x="96" y="64" width="12" height="4" fill="#e8634a"/>
<rect x="16" y="68" width="16" height="4" fill="#8b2500"/>
<rect x="32" y="68" width="32" height="4" fill="#e8634a"/>
<rect x="64" y="68" width="4" height="4" fill="#ff8c42"/>
<rect x="68" y="68" width="4" height="4" fill="#c44530"/>
<rect x="72" y="68" width="24" height="4" fill="#8b2500"/>
<rect x="96" y="68" width="12" height="4" fill="#e8634a"/>
<rect x="20" y="72" width="12" height="4" fill="#8b2500"/>
<rect x="32" y="72" width="36" height="4" fill="#e8634a"/>
<rect x="68" y="72" width="4" height="4" fill="#ff8c42"/>
<rect x="72" y="72" width="4" height="4" fill="#c44530"/>
<rect x="76" y="72" width="20" height="4" fill="#8b2500"/>
<rect x="96" y="72" width="12" height="4" fill="#e8634a"/>
<rect x="24" y="76" width="8" height="4" fill="#8b2500"/>
<rect x="32" y="76" width="40" height="4" fill="#e8634a"/>
<rect x="72" y="76" width="4" height="4" fill="#ff8c42"/>
<rect x="76" y="76" width="4" height="4" fill="#c44530"/>
<rect x="80" y="76" width="16" height="4" fill="#8b2500"/>
<rect x="96" y="76" width="4" height="4" fill="#c44530"/>
<rect x="100" y="76" width="8" height="4" fill="#e8634a"/>
<rect x="32" y="80" width="8" height="4" fill="#ff8c42"/>
<rect x="40" y="80" width="36" height="4" fill="#e8634a"/>
<rect x="76" y="80" width="4" height="4" fill="#ff8c42"/>
<rect x="80" y="80" width="4" height="4" fill="#c44530"/>
<rect x="84" y="80" width="12" height="4" fill="#8b2500"/>
<rect x="96" y="80" width="4" height="4" fill="#c44530"/>
<rect x="100" y="80" width="8" height="4" fill="#e8634a"/>
<rect x="32" y="84" width="8" height="4" fill="#ffb347"/>
<rect x="40" y="84" width="12" height="4" fill="#ff8c42"/>
<rect x="52" y="84" width="28" height="4" fill="#e8634a"/>
<rect x="80" y="84" width="4" height="4" fill="#ff8c42"/>
<rect x="84" y="84" width="4" height="4" fill="#c44530"/>
<rect x="88" y="84" width="8" height="4" fill="#8b2500"/>
<rect x="96" y="84" width="4" height="4" fill="#e8634a"/>
<rect x="100" y="84" width="4" height="4" fill="#ff8c42"/>
<rect x="104" y="84" width="4" height="4" fill="#e8634a"/>
<rect x="36" y="88" width="16" height="4" fill="#ffb347"/>
<rect x="52" y="88" width="8" height="4" fill="#ff8c42"/>
<rect x="60" y="88" width="24" height="4" fill="#e8634a"/>
<rect x="84" y="88" width="4" height="4" fill="#ff8c42"/>
<rect x="88" y="88" width="8" height="4" fill="#c44530"/>
<rect x="96" y="88" width="8" height="4" fill="#e8634a"/>
<rect x="40" y="92" width="20" height="4" fill="#ffb347"/>
<rect x="60" y="92" width="12" height="4" fill="#ff8c42"/>
<rect x="72" y="92" width="16" height="4" fill="#e8634a"/>
<rect x="88" y="92" width="4" height="4" fill="#ff8c42"/>
<rect x="92" y="92" width="4" height="4" fill="#e8634a"/>
<rect x="44" y="96" width="28" height="4" fill="#ffb347"/>
<rect x="72" y="96" width="12" height="4" fill="#ff8c42"/>
<rect x="84" y="96" width="8" height="4" fill="#ffb347"/>
<rect x="48" y="100" width="36" height="4" fill="#ffb347"/>
<rect x="84" y="100" width="4" height="4" fill="#ffe8c0"/>
<rect x="88" y="100" width="4" height="4" fill="#ff8c42"/>
<rect x="52" y="104" width="36" height="4" fill="#ffb347"/>
</svg>