<svg xmlns="http://www.w3.org/2000/svg" viewBox="0 0 120 120" width="120" height="120" shape-rendering="crispEdges">
<rect width="120" height="120" rx="8" fill="#161b22"/>
<rect x="1" y="1" width="118" height="118" rx="7" fill="none" stroke="#2a2e35" stroke-width="1"/>
<rect x="12" y="12" width="16" height="4" fill="#8b2500"/>
<rect x="28" y="12" width="28" height="4" fill="#c44530"/>
<rect x="56" y="12" width="4" height="4" fill="#e8634a"/>
<rect x="60" y="12" width="48" height="4" fill="#ffb347"/>
<rect x="12" y="16" width="20" height="4" fill="#8b2500"/>
<rect x="32" y="16" width="20" height="4" fill="#c44530"/>
<rect x="52" y="16" width="4" height="4" fill="#e8634a"/>
<rect x="56" y="16" width="40" height="4" fill="#ffb347"/>
<rect x="96" y="16" width="4" height="4" fill="#ffe8c0"/>
<rect x="100" y="16" width="4" height="4" fill="#ffb347"/>
<rect x="12" y="20" width="24" height="4" fill="#8b2500"/>
<rect x="36" y="20" width="12" height="4" fill="#c44530"/>
<rect x="52" y="20" width="40" height="4" fill="#ffb347"/>
<rect x="92" y="20" width="4" height="4" fill="#ffe8c0"/>
<rect x="96" y="20" width="4" height="4" fill="#ffb347"/>
<rect x="12" y="24" width="32" height="4" fill="#8b2500"/>
<rect x="48" y="24" width="40" height="4" fill="#ffb347"/>
<rect x="88" y="24" width="4" height="4" fill="#ffe8c0"/>
<rect x="92" y="24" width="4" height="4" fill="#ffb347"/>
<rect x="12" y="28" width="28" height="4" fill="#8b2500"/>
<rect x="44" y="28" width="12" height="4" fill="#ff8c42"/>
<rect x="56" y="28" width="28" height="4" fill="#ffb347"/>
<rect x="84" y="28" width="4" height="4" fill="#ffe8c0"/>
<rect x="88" y="28" width="4" height="4" fill="#ffb347"/>
<rect x="12" y="32" width="24" height="4" fill="#8b2500"/>
<rect x="36" y="32" width="4" height="4" fill="#c44530"/>
<rect x="40" y="32" width="16" height="4" fill="#ff8c42"/>
<rect x="56" y="32" width="24" height="4" fill="#ffb347"/>
<rect x="80" y="32" width="4" height="4" fill="#ffe8c0"/>
<rect x="84" y="32" width="4" height="4" fill="#ffb347"/>
<rect x="12" y="36" width="24" height="4" fill="#8b2500"/>
<rect x="36" y="36" width="24" height="4" fill="#ff8c42"/>
<rect x="60" y="36" width="24" height="4" fill="#ffb347"/>
<rect x="12" y="40" width="20" height="4" fill="#8b2500"/>
<rect x="32" y="40" width="36" height="4" fill="#ff8c42"/>
<rect x="68" y="40" width="12" height="4" fill="#ffb347"/>
<rect x="12" y="44" width="16" height="4" fill="#8b2500"/>
<rect x="28" y="44" width="36" height="4" fill="#ff8c42"/>
<rect x="64" y="44" width="8" height="4" fill="#ffb347"/>
<rect x="72" y="44" width="4" height="4" fill="#ff8c42"/>
<rect x="12" y="48" width="12" height="4" fill="#8b2500"/>
<rect x="24" y="48" width="4" height="4" fill="#e8634a"/>
<rect x="28" y="48" width="36" height="4" fill="#ff8c42"/>
<rect x="64" y="48" width="4" height="4" fill="#ffb347"/>
<rect x="68" y="48" width="4" height="4" fill="#ff8c42"/>
<rect x="12" y="52" width="8" height="4" fill="#8b2500"/>
<rect x="20" y="52" width="4" height="4" fill="#e8634a"/>
<rect x="24" y="52" width="36" height="4" fill="#ff8c42"/>
<rect x="60" y="52" width="4" height="4" fill="#ffb347"/>
<rect x="64" y="52" width="4" height="4" fill="#ff8c42"/>
<rect x="12" y="56" width="4" height="4" fill="#8b2500"/>
<rect x="16" y="56" width="4" height="4" fill="#e8634a"/>
<rect x="20" y="56" width="36" height="4" fill="#ff8c42"/>
<rect x="56" y="56" width="4" height="4" fill="#ffb347"/>
<rect x="60" y="56" width="4" height="4" fill="#ff8c42"/>
<rect x="12" y="60" width="16" height="4" fill="#e8634a"/>
<rect x="28" y="60" width="32" height="4" fill="#ff8c42"/>
<rect x="60" y="60" width="4" height="4" fill="#c44530"/>
<rect x="12" y="64" width="20" height="4" fill="#e8634a"/>
<rect x="32" y="64" width="20" height="4" fill="#ff8c42"/>
<rect x="52" y="64" width="4" height="4" fill="#e8634a"/>
<rect x="56" y="64" width="4" height="4" fill="#c44530"/>
<rect x="60" y="64" width="4" height="4" fill="#e8634a"/>
<rect x="64" y="64" width="4" height="4" fill="#c44530"/>
<rect x="12" y="68" width="24" height="4" fill="#e8634a"/>
<rect x="36" y="68" width="12" height="4" fill="#ff8c42"/>
<rect x="52" y="68" width="12" height="4" fill="#c44530"/>
<rect x="64" y="68" width="4" height="4" fill="#e8634a"/>
<rect x="68" y="68" width="4" height="4" fill="#c44530"/>
<rect x="12" y="72" width="24" height="4" fill="#e8634a"/>
<rect x="36" y="72" width="8" height="4" fill="#ff8c42"/>
<rect x="48" y="72" width="20" height="4" fill="#c44530"/>
<rect x="68" y="72" width="4" height="4" fill="#e8634a"/>
<rect x="72" y="72" width="4" height="4" fill="#c44530"/>
<rect x="12" y="76" width="24" height="4" fill="#e8634a"/>
<rect x="36" y="76" width="4" height="4" fill="#ff8c42"/>
<rect x="44" y="76" width="28" height="4" fill="#c44530"/>
<rect x="72" y="76" width="4" height="4" fill="#e8634a"/>
<rect x="76" y="76" width="4" height="4" fill="#c44530"/>
<rect x="12" y="80" width="24" height="4" fill="#e8634a"/>
<rect x="40" y="80" width="4" height="4" fill="#8b2500"/>
<rect x="44" y="80" width="32" height="4" fill="#c44530"/>
<rect x="76" y="80" width="4" height="4" fill="#e8634a"/>
<rect x="80" y="80" width="4" height="4" fill="#c44530"/>
<rect x="12" y="84" width="20" height="4" fill="#e8634a"/>
<rect x="36" y="84" width="8" height="4" fill="#8b2500"/>
<rect x="44" y="84" width="36" height="4" fill="#c44530"/>
<rect x="80" y="84" width="4" height="4" fill="#e8634a"/>
<rect x="84" y="84" width="4" height="4" fill="#c44530"/>
<rect x="12" y="88" width="16" height="4" fill="#e8634a"/>
<rect x="32" y="88" width="16" height="4" fill="#8b2500"/>
<rect x="48" y="88" width="36" height="4" fill="#c44530"/>
<rect x="84" y="88" width="4" height="4" fill="#e8634a"/>
<rect x="88" y="88" width="4" height="4" fill="#c44530"/>
<rect x="12" y="92" width="12" height="4" fill="#e8634a"/>
<rect x="28" y="92" width="24" height="4" fill="#8b2500"/>
<rect x="52" y="92" width="36" height="4" fill="#c44530"/>
<rect x="88" y="92" width="4" height="4" fill="#e8634a"/>
<rect x="92" y="92" width="4" height="4" fill="#c44530"/>
<rect x="12" y="96" width="4" height="4" fill="#c44530"/>
<rect x="16" y="96" width="4" height="4" fill="#e8634a"/>
<rect x="20" y="96" width="4" height="4" fill="#c44530"/>
<rect x="24" y="96" width="32" height="4" fill="#8b2500"/>
<rect x="56" y="96" width="36" height="4" fill="#c44530"/>
<rect x="92" y="96" width="4" height="4" fill="#e8634a"/>
<rect x="96" y="96" width="4" height="4" fill="#c44530"/>
<rect x="12" y="100" width="4" height="4" fill="#e8634a"/>
<rect x="16" y="100" width="44" height="4" fill="#8b2500"/>
<rect x="60" y="100" width="36" height="4" fill="#c44530"/>
<rect x="96" y="100" width="4" height="4" fill="#e8634a"/>
<rect x="100" y="100" width="4" height="4" fill="#c44530"/>
<rect x="12" y="104" width="52" height="4" fill="#8b2500"/>
<rect x="64" y="104" width="36" height="4" fill="#c44530"/>
<rect x="100" y="104" width="4" height="4" fill="#e8634a"/>
<rect x="104" y="104" width="4" height="4" fill="#c44530"/>
</svg>