<svg xmlns="http://www.w3.org/2000/svg" viewBox="0 0 80 80" width="80" height="80">
<rect x="20" y="10" width="15" height="5" fill="#ffb347"/>
<rect x="40" y="10" width="15" height="5" fill="#ffb347"/>
<rect x="15" y="15" width="5" height="5" fill="#ffb347"/>
<rect x="35" y="15" width="5" height="5" fill="#ffb347"/>
<rect x="55" y="15" width="5" height="5" fill="#ffb347"/>
<rect x="15" y="20" width="5" height="5" fill="#ffb347"/>
<rect x="30" y="20" width="15" height="5" fill="#ffb347"/>
<rect x="55" y="20" width="5" height="5" fill="#ffb347"/>
<rect x="10" y="25" width="25" height="5" fill="#ffb347"/>
<rect x="40" y="25" width="25" height="5" fill="#ffb347"/>
<rect x="5" y="30" width="10" height="5" fill="#ffb347"/>
<rect x="20" y="30" width="10" height="5" fill="#ffb347"/>
<rect x="45" y="30" width="10" height="5" fill="#ffb347"/>
<rect x="60" y="30" width="10" height="5" fill="#ffb347"/>
<rect x="5" y="35" width="5" height="5" fill="#ffb347"/>
<rect x="20" y="35" width="5" height="5" fill="#ffb347"/>
<rect x="35" y="35" width="10" height="5" fill="#ffe8c0"/>
<rect x="50" y="35" width="5" height="5" fill="#ffb347"/>
<rect x="65" y="35" width="5" height="5" fill="#ffb347"/>
<rect x="5" y="40" width="10" height="5" fill="#ffb347"/>
<rect x="20" y="40" width="10" height="5" fill="#ffb347"/>
<rect x="35" y="40" width="10" height="5" fill="#ffe8c0"/>
<rect x="45" y="40" width="10" height="5" fill="#ffb347"/>
<rect x="60" y="40" width="10" height="5" fill="#ffb347"/>
<rect x="10" y="45" width="25" height="5" fill="#ffb347"/>
<rect x="40" y="45" width="25" height="5" fill="#ffb347"/>
<rect x="15" y="50" width="5" height="5" fill="#ffb347"/>
<rect x="30" y="50" width="15" height="5" fill="#ffb347"/>
<rect x="55" y="50" width="5" height="5" fill="#ffb347"/>
<rect x="15" y="55" width="5" height="5" fill="#ffb347"/>
<rect x="35" y="55" width="5" height="5" fill="#ffb347"/>
<rect x="55" y="55" width="5" height="5" fill="#ffb347"/>
<rect x="20" y="60" width="15" height="5" fill="#ffb347"/>
<rect x="40" y="60" width="15" height="5" fill="#ffb347"/>
</svg>