<svg xmlns="http://www.w3.org/2000/svg" viewBox="0 0 80 80" width="80" height="80">
<rect x="45" y="5" width="10" height="5" fill="#e8634a"/>
<rect x="40" y="10" width="10" height="5" fill="#e8634a"/>
<rect x="35" y="15" width="10" height="5" fill="#e8634a"/>
<rect x="30" y="20" width="10" height="5" fill="#e8634a"/>
<rect x="25" y="25" width="10" height="5" fill="#e8634a"/>
<rect x="20" y="30" width="10" height="5" fill="#e8634a"/>
<rect x="10" y="35" width="15" height="5" fill="#ffb347"/>
<rect x="50" y="35" width="5" height="5" fill="#ffb347"/>
<rect x="10" y="40" width="15" height="5" fill="#ffb347"/>
<rect x="50" y="40" width="5" height="5" fill="#ffb347"/>
<rect x="20" y="45" width="10" height="5" fill="#c44530"/>
<rect x="25" y="50" width="10" height="5" fill="#c44530"/>
<rect x="30" y="55" width="10" height="5" fill="#c44530"/>
<rect x="35" y="60" width="10" height="5" fill="#c44530"/>
<rect x="40" y="65" width="10" height="5" fill="#c44530"/>
<rect x="45" y="70" width="10" height="5" fill="#c44530"/>
</svg>