<svg xmlns="http://www.w3.org/2000/svg" viewBox="0 0 80 80" width="80" height="80">
<rect x="35" y="0" width="5" height="5" fill="#c44530"/>
<rect x="10" y="10" width="5" height="5" fill="#c44530"/>
<rect x="25" y="10" width="25" height="5" fill="#c44530"/>
<rect x="60" y="10" width="5" height="5" fill="#c44530"/>
<rect x="15" y="15" width="10" height="5" fill="#c44530"/>
<rect x="45" y="15" width="15" height="5" fill="#c44530"/>
<rect x="15" y="20" width="5" height="5" fill="#c44530"/>
<rect x="25" y="20" width="20" height="5" fill="#e8634a"/>
<rect x="55" y="20" width="5" height="5" fill="#c44530"/>
<rect x="10" y="25" width="10" height="5" fill="#c44530"/>
<rect x="25" y="25" width="30" height="5" fill="#e8634a"/>
<rect x="60" y="25" width="5" height="5" fill="#c44530"/>
<rect x="10" y="30" width="5" height="5" fill="#c44530"/>
<rect x="20" y="30" width="5" height="5" fill="#e8634a"/>
<rect x="30" y="30" width="5" height="5" fill="#e8634a"/>
<rect x="40" y="30" width="5" height="5" fill="#e8634a"/>
<rect x="50" y="30" width="5" height="5" fill="#e8634a"/>
<rect x="60" y="30" width="5" height="5" fill="#c44530"/>
<rect x="0" y="35" width="5" height="5" fill="#c44530"/>
<rect x="10" y="35" width="5" height="5" fill="#c44530"/>
<rect x="20" y="35" width="5" height="5" fill="#e8634a"/>
<rect x="30" y="35" width="15" height="5" fill="#e8634a"/>
<rect x="50" y="35" width="5" height="5" fill="#e8634a"/>
<rect x="60" y="35" width="5" height="5" fill="#c44530"/>
<rect x="70" y="35" width="5" height="5" fill="#c44530"/>
<rect x="10" y="40" width="5" height="5" fill="#c44530"/>
<rect x="20" y="40" width="5" height="5" fill="#e8634a"/>
<rect x="30" y="40" width="5" height="5" fill="#e8634a"/>
<rect x="40" y="40" width="5" height="5" fill="#8b2500"/>
<rect x="50" y="40" width="5" height="5" fill="#e8634a"/>
<rect x="60" y="40" width="5" height="5" fill="#c44530"/>
<rect x="10" y="45" width="10" height="5" fill="#c44530"/>
<rect x="25" y="45" width="10" height="5" fill="#e8634a"/>
<rect x="40" y="45" width="5" height="5" fill="#8b2500"/>
<rect x="45" y="45" width="5" height="5" fill="#e8634a"/>
<rect x="60" y="45" width="5" height="5" fill="#c44530"/>
<rect x="15" y="50" width="5" height="5" fill="#c44530"/>
<rect x="30" y="50" width="15" height="5" fill="#e8634a"/>
<rect x="55" y="50" width="5" height="5" fill="#c44530"/>
<rect x="15" y="55" width="15" height="5" fill="#c44530"/>
<rect x="45" y="55" width="15" height="5" fill="#c44530"/>
<rect x="10" y="60" width="5" height="5" fill="#c44530"/>
<rect x="25" y="60" width="25" height="5" fill="#c44530"/>
<rect x="60" y="60" width="5" height="5" fill="#c44530"/>
<rect x="35" y="70" width="5" height="5" fill="#c44530"/>
</svg>