<svg xmlns="http://www.w3.org/2000/svg" viewBox="0 0 92 92" width="92" height="92" shape-rendering="crispEdges">
<style>
      @keyframes cursor-blink { 0%,49%{opacity:1} 50%,100%{opacity:0} }
      @keyframes load-bar { 0%{width:0} 60%{width:36px} 60.1%,100%{width:0} }
      .cursor { animation: cursor-blink 1s step-end infinite; }
      .loadbar { animation: load-bar 5s ease-out infinite; }
    </style>
<rect width="92" height="92" rx="8" fill="#161b22"/>
<rect x="1" y="1" width="90" height="90" rx="7" fill="none" stroke="#2a2e35" stroke-width="1"/>
<rect x="18" y="18" width="56" height="4" fill="#c44530"/>
<rect x="18" y="22" width="4" height="4" fill="#c44530"/>
<rect x="22" y="22" width="4" height="4" fill="#e8634a"/>
<rect x="26" y="22" width="4" height="4" fill="#ff8c42"/>
<rect x="34" y="22" width="4" height="4" fill="#e8634a"/>
<rect x="38" y="22" width="4" height="4" fill="#ff8c42"/>
<rect x="46" y="22" width="4" height="4" fill="#c44530"/>
<rect x="70" y="22" width="4" height="4" fill="#c44530"/>
<rect x="18" y="26" width="56" height="4" fill="#c44530"/>
<rect x="18" y="30" width="4" height="4" fill="#c44530"/>
<rect x="22" y="30" width="4" height="4" fill="#ffb347"/>
<rect x="66" y="30" width="4" height="4" fill="#ffb347"/>
<rect x="70" y="30" width="4" height="4" fill="#c44530"/>
<rect x="18" y="34" width="56" height="4" fill="#c44530"/>
<rect x="18" y="38" width="4" height="4" fill="#c44530"/>
<rect x="70" y="38" width="4" height="4" fill="#c44530"/>
<rect x="18" y="42" width="4" height="4" fill="#c44530"/>
<rect x="30" y="42" width="36" height="4" fill="#3a0f08"/>
<rect x="70" y="42" width="4" height="4" fill="#c44530"/>
<rect x="18" y="46" width="4" height="4" fill="#c44530"/>
<rect x="30" y="46" width="4" height="4" fill="#3a0f08"/>
<rect x="42" y="46" width="12" height="4" fill="#ff8c42"/>
<rect x="62" y="46" width="4" height="4" fill="#3a0f08"/>
<rect x="70" y="46" width="4" height="4" fill="#c44530"/>
<rect x="18" y="50" width="4" height="4" fill="#c44530"/>
<rect x="30" y="50" width="4" height="4" fill="#3a0f08"/>
<rect x="38" y="50" width="4" height="4" fill="#ff8c42"/>
<rect x="54" y="50" width="4" height="4" fill="#ff8c42"/>
<rect x="62" y="50" width="4" height="4" fill="#3a0f08"/>
<rect x="70" y="50" width="4" height="4" fill="#c44530"/>
<rect x="18" y="54" width="4" height="4" fill="#c44530"/>
<rect x="30" y="54" width="4" height="4" fill="#3a0f08"/>
<rect x="38" y="54" width="20" height="4" fill="#ff8c42"/>
<rect x="62" y="54" width="4" height="4" fill="#3a0f08"/>
<rect x="70" y="54" width="4" height="4" fill="#c44530"/>
<rect x="18" y="58" width="4" height="4" fill="#c44530"/>
<rect x="30" y="58" width="4" height="4" fill="#3a0f08"/>
<rect x="38" y="58" width="4" height="4" fill="#ff8c42"/>
<rect x="62" y="58" width="4" height="4" fill="#3a0f08"/>
<rect x="70" y="58" width="4" height="4" fill="#c44530"/>
<rect x="18" y="62" width="4" height="4" fill="#c44530"/>
<rect x="30" y="62" width="4" height="4" fill="#3a0f08"/>
<rect x="38" y="62" width="20" height="4" fill="#ff8c42"/>
<rect x="62" y="62" width="4" height="4" fill="#3a0f08"/>
<rect x="70" y="62" width="4" height="4" fill="#c44530"/>
<rect x="18" y="66" width="4" height="4" fill="#c44530"/>
<rect x="30" y="66" width="36" height="4" fill="#3a0f08"/>
<rect x="70" y="66" width="4" height="4" fill="#c44530"/>
<rect x="18" y="70" width="56" height="4" fill="#c44530"/>
<rect x="26" y="30" width="1" height="4" fill="#ffe8c0" class="cursor"/>
<rect x="22" y="33" width="0" height="1" fill="#ffb347" class="loadbar"/>
</svg>