<svg xmlns="http://www.w3.org/2000/svg" viewBox="0 0 92 92" width="92" height="92" shape-rendering="crispEdges">
<style>
      @keyframes render-px1 { 0%,40%,100%{opacity:0} 45%,95%{opacity:1} }
      @keyframes render-px2 { 0%,55%,100%{opacity:0} 60%,90%{opacity:1} }
      @keyframes render-px3 { 0%,70%,100%{opacity:0} 75%,95%{opacity:1} }
      .rpx1 { animation: render-px1 3s step-end infinite; }
      .rpx2 { animation: render-px2 3s step-end infinite; }
      .rpx3 { animation: render-px3 3s step-end infinite; }
    </style>
<rect width="92" height="92" rx="8" fill="#161b22"/>
<rect x="1" y="1" width="90" height="90" rx="7" fill="none" stroke="#2a2e35" stroke-width="1"/>
<rect x="18" y="18" width="56" height="4" fill="#c44530"/>
<rect x="18" y="22" width="4" height="4" fill="#c44530"/>
<rect x="70" y="22" width="4" height="4" fill="#c44530"/>
<rect x="18" y="26" width="4" height="4" fill="#c44530"/>
<rect x="22" y="26" width="48" height="4" fill="#3a0f08"/>
<rect x="70" y="26" width="4" height="4" fill="#c44530"/>
<rect x="18" y="30" width="4" height="4" fill="#c44530"/>
<rect x="22" y="30" width="4" height="4" fill="#3a0f08"/>
<rect x="42" y="30" width="4" height="4" fill="#ffb347"/>
<rect x="66" y="30" width="4" height="4" fill="#3a0f08"/>
<rect x="70" y="30" width="4" height="4" fill="#c44530"/>
<rect x="18" y="34" width="4" height="4" fill="#c44530"/>
<rect x="22" y="34" width="4" height="4" fill="#3a0f08"/>
<rect x="38" y="34" width="8" height="4" fill="#ffb347"/>
<rect x="46" y="34" width="4" height="4" fill="#ff8c42"/>
<rect x="66" y="34" width="4" height="4" fill="#3a0f08"/>
<rect x="70" y="34" width="4" height="4" fill="#c44530"/>
<rect x="18" y="38" width="4" height="4" fill="#c44530"/>
<rect x="22" y="38" width="4" height="4" fill="#3a0f08"/>
<rect x="34" y="38" width="4" height="4" fill="#ff8c42"/>
<rect x="38" y="38" width="8" height="4" fill="#ffb347"/>
<rect x="46" y="38" width="4" height="4" fill="#ff8c42"/>
<rect x="50" y="38" width="4" height="4" fill="#1a0c10"/>
<rect x="66" y="38" width="4" height="4" fill="#3a0f08"/>
<rect x="70" y="38" width="4" height="4" fill="#c44530"/>
<rect x="18" y="42" width="4" height="4" fill="#c44530"/>
<rect x="22" y="42" width="4" height="4" fill="#3a0f08"/>
<rect x="30" y="42" width="4" height="4" fill="#ff8c42"/>
<rect x="34" y="42" width="12" height="4" fill="#1a0c10"/>
<rect x="46" y="42" width="4" height="4" fill="#ff8c42"/>
<rect x="50" y="42" width="4" height="4" fill="#1a0c10"/>
<rect x="54" y="42" width="4" height="4" fill="#ff8c42"/>
<rect x="66" y="42" width="4" height="4" fill="#3a0f08"/>
<rect x="70" y="42" width="4" height="4" fill="#c44530"/>
<rect x="18" y="46" width="4" height="4" fill="#c44530"/>
<rect x="22" y="46" width="4" height="4" fill="#3a0f08"/>
<rect x="26" y="46" width="4" height="4" fill="#ff8c42"/>
<rect x="30" y="46" width="32" height="4" fill="#1a0c10"/>
<rect x="66" y="46" width="4" height="4" fill="#3a0f08"/>
<rect x="70" y="46" width="4" height="4" fill="#c44530"/>
<rect x="18" y="50" width="4" height="4" fill="#c44530"/>
<rect x="22" y="50" width="4" height="4" fill="#3a0f08"/>
<rect x="26" y="50" width="40" height="4" fill="#1a0c10"/>
<rect x="66" y="50" width="4" height="4" fill="#3a0f08"/>
<rect x="70" y="50" width="4" height="4" fill="#c44530"/>
<rect x="18" y="54" width="4" height="4" fill="#c44530"/>
<rect x="22" y="54" width="48" height="4" fill="#3a0f08"/>
<rect x="70" y="54" width="4" height="4" fill="#c44530"/>
<rect x="18" y="58" width="4" height="4" fill="#c44530"/>
<rect x="70" y="58" width="4" height="4" fill="#c44530"/>
<rect x="18" y="62" width="56" height="4" fill="#c44530"/>
<rect x="38" y="66" width="16" height="4" fill="#c44530"/>
<rect x="34" y="70" width="24" height="4" fill="#c44530"/>
<rect x="54" y="34" width="4" height="4" fill="#e8634a" opacity="0" class="rpx1"/>
<rect x="38" y="42" width="4" height="4" fill="#ffe8c0" opacity="0" class="rpx2"/>
<rect x="58" y="30" width="4" height="4" fill="#ff8c42" opacity="0" class="rpx3"/>
</svg>