<svg xmlns="http://www.w3.org/2000/svg" viewBox="0 0 92 92" width="92" height="92" shape-rendering="crispEdges">
<rect width="92" height="92" rx="8" fill="#161b22"/>
<rect x="1" y="1" width="90" height="90" rx="7" fill="none" stroke="#2a2e35" stroke-width="1"/>
<rect x="22" y="18" width="48" height="4" fill="#c44530"/>
<rect x="22" y="22" width="4" height="4" fill="#c44530"/>
<rect x="66" y="22" width="4" height="4" fill="#c44530"/>
<rect x="22" y="26" width="4" height="4" fill="#c44530"/>
<rect x="30" y="26" width="32" height="4" fill="#3a0f08"/>
<rect x="66" y="26" width="4" height="4" fill="#c44530"/>
<rect x="22" y="30" width="4" height="4" fill="#c44530"/>
<rect x="30" y="30" width="4" height="4" fill="#3a0f08"/>
<rect x="58" y="30" width="4" height="4" fill="#3a0f08"/>
<rect x="66" y="30" width="4" height="4" fill="#c44530"/>
<rect x="22" y="34" width="4" height="4" fill="#c44530"/>
<rect x="30" y="34" width="4" height="4" fill="#3a0f08"/>
<rect x="42" y="34" width="4" height="4" fill="#e8634a"/>
<rect x="46" y="34" width="4" height="4" fill="#ff8c42"/>
<rect x="58" y="34" width="4" height="4" fill="#3a0f08"/>
<rect x="66" y="34" width="4" height="4" fill="#c44530"/>
<rect x="22" y="38" width="4" height="4" fill="#c44530"/>
<rect x="30" y="38" width="4" height="4" fill="#3a0f08"/>
<rect x="38" y="38" width="8" height="4" fill="#e8634a"/>
<rect x="46" y="38" width="8" height="4" fill="#ff8c42"/>
<rect x="58" y="38" width="4" height="4" fill="#3a0f08"/>
<rect x="66" y="38" width="4" height="4" fill="#c44530"/>
<rect x="22" y="42" width="4" height="4" fill="#c44530"/>
<rect x="30" y="42" width="4" height="4" fill="#3a0f08"/>
<rect x="38" y="42" width="4" height="4" fill="#e8634a"/>
<rect x="42" y="42" width="4" height="4" fill="#ff8c42"/>
<rect x="46" y="42" width="8" height="4" fill="#ffb347"/>
<rect x="58" y="42" width="4" height="4" fill="#3a0f08"/>
<rect x="66" y="42" width="4" height="4" fill="#c44530"/>
<rect x="22" y="46" width="4" height="4" fill="#c44530"/>
<rect x="30" y="46" width="4" height="4" fill="#3a0f08"/>
<rect x="42" y="46" width="12" height="4" fill="#ffb347"/>
<rect x="58" y="46" width="4" height="4" fill="#3a0f08"/>
<rect x="66" y="46" width="4" height="4" fill="#c44530"/>
<rect x="22" y="50" width="4" height="4" fill="#c44530"/>
<rect x="30" y="50" width="4" height="4" fill="#3a0f08"/>
<rect x="58" y="50" width="4" height="4" fill="#3a0f08"/>
<rect x="66" y="50" width="4" height="4" fill="#c44530"/>
<rect x="22" y="54" width="4" height="4" fill="#c44530"/>
<rect x="30" y="54" width="32" height="4" fill="#3a0f08"/>
<rect x="66" y="54" width="4" height="4" fill="#c44530"/>
<rect x="22" y="58" width="4" height="4" fill="#c44530"/>
<rect x="66" y="58" width="4" height="4" fill="#c44530"/>
<rect x="22" y="62" width="48" height="4" fill="#c44530"/>
<rect x="38" y="66" width="16" height="4" fill="#c44530"/>
<rect x="34" y="70" width="24" height="4" fill="#c44530"/>
</svg>